<mxfile host="Electron" modified="2024-07-30T08:39:50.703Z" agent="Mozilla/5.0 (Windows NT 10.0; Win64; x64) AppleWebKit/537.36 (KHTML, like Gecko) draw.io/24.1.0 Chrome/120.0.6099.109 Electron/28.1.0 Safari/537.36" etag="G3QsN0f4ZIjTxXGWlNxU" version="24.1.0" type="device">
  <diagram name="Storage" id="HlEBFxBSwHhaApRulJSV">
    <mxGraphModel dx="1733" dy="2965" grid="1" gridSize="10" guides="1" tooltips="1" connect="1" arrows="1" fold="1" page="1" pageScale="1" pageWidth="2336" pageHeight="1654" math="0" shadow="0">
      <root>
        <mxCell id="CrBskSO4nDhFndBRX1B0-0" />
        <mxCell id="CrBskSO4nDhFndBRX1B0-1" parent="CrBskSO4nDhFndBRX1B0-0" />
        <mxCell id="1LrZQP8tYeefJCKVqhzE-0" style="edgeStyle=orthogonalEdgeStyle;shape=connector;curved=1;rounded=0;hachureGap=4;orthogonalLoop=1;jettySize=auto;html=1;entryX=0;entryY=0.5;entryDx=0;entryDy=0;labelBackgroundColor=default;strokeColor=default;fontFamily=Helvetica;fontSize=16;fontColor=default;endArrow=classic;" parent="CrBskSO4nDhFndBRX1B0-1" source="1LrZQP8tYeefJCKVqhzE-4" target="1LrZQP8tYeefJCKVqhzE-7" edge="1">
          <mxGeometry relative="1" as="geometry" />
        </mxCell>
        <mxCell id="1LrZQP8tYeefJCKVqhzE-1" value="Deploy,&lt;br&gt;update DP" style="edgeLabel;html=1;align=center;verticalAlign=middle;resizable=0;points=[];fontSize=16;fontFamily=Helvetica;fontColor=default;" parent="1LrZQP8tYeefJCKVqhzE-0" vertex="1" connectable="0">
          <mxGeometry x="-0.0027" y="-2" relative="1" as="geometry">
            <mxPoint x="4" y="-25" as="offset" />
          </mxGeometry>
        </mxCell>
        <mxCell id="1LrZQP8tYeefJCKVqhzE-4" value="DP team" style="shape=umlActor;verticalLabelPosition=bottom;verticalAlign=top;html=1;outlineConnect=0;hachureGap=4;fontFamily=Helvetica;fontSize=16;fontColor=default;" parent="CrBskSO4nDhFndBRX1B0-1" vertex="1">
          <mxGeometry x="369" y="-1387.5" width="60" height="117.5" as="geometry" />
        </mxCell>
        <mxCell id="1LrZQP8tYeefJCKVqhzE-5" value="" style="edgeStyle=orthogonalEdgeStyle;shape=connector;curved=1;rounded=0;hachureGap=4;orthogonalLoop=1;jettySize=auto;html=1;labelBackgroundColor=default;strokeColor=default;fontFamily=Helvetica;fontSize=16;fontColor=default;endArrow=classic;" parent="CrBskSO4nDhFndBRX1B0-1" source="1LrZQP8tYeefJCKVqhzE-7" target="4fnjIGI5G4VHq082C5wX-1" edge="1">
          <mxGeometry relative="1" as="geometry">
            <mxPoint x="759" y="-1339.909090909091" as="sourcePoint" />
            <mxPoint x="879" y="-1339.3636363636365" as="targetPoint" />
          </mxGeometry>
        </mxCell>
        <mxCell id="1LrZQP8tYeefJCKVqhzE-6" value="Deploy" style="edgeLabel;html=1;align=center;verticalAlign=middle;resizable=0;points=[];fontSize=16;fontFamily=Helvetica;fontColor=default;" parent="1LrZQP8tYeefJCKVqhzE-5" vertex="1" connectable="0">
          <mxGeometry x="0.3239" relative="1" as="geometry">
            <mxPoint x="-26" y="-24" as="offset" />
          </mxGeometry>
        </mxCell>
        <mxCell id="FvK3etwAvJokyo_bT2Fi-0" value="Creates a folder based on the user input:&lt;br style=&quot;font-size: 18px;&quot;&gt;&lt;br style=&quot;font-size: 18px;&quot;&gt;&lt;div style=&quot;font-size: 18px;&quot;&gt;&lt;font style=&quot;font-size: 18px;&quot; face=&quot;Courier New&quot;&gt;&lt;b style=&quot;font-size: 18px;&quot;&gt;&amp;lt;rootFolder&amp;gt;/&amp;lt;folder&amp;gt;&lt;/b&gt;&lt;/font&gt;&lt;/div&gt;" style="shape=note;whiteSpace=wrap;html=1;backgroundOutline=1;darkOpacity=0.05;hachureGap=4;fontFamily=Helvetica;fontSize=18;align=left;verticalAlign=top;spacingLeft=4;size=24;" parent="CrBskSO4nDhFndBRX1B0-1" vertex="1">
          <mxGeometry x="870" y="-1270" width="370" height="80" as="geometry" />
        </mxCell>
        <mxCell id="sNYwx5eS7knzUlJCa3ny-0" value="CDP Private Cloud Base" style="points=[[0,0],[0.25,0],[0.5,0],[0.75,0],[1,0],[1,0.25],[1,0.5],[1,0.75],[1,1],[0.75,1],[0.5,1],[0.25,1],[0,1],[0,0.75],[0,0.5],[0,0.25]];outlineConnect=0;gradientColor=none;html=1;whiteSpace=wrap;fontSize=17;fontStyle=0;container=1;pointerEvents=0;collapsible=0;recursiveResize=0;shape=mxgraph.aws4.group;grIcon=mxgraph.aws4.group_aws_cloud;strokeColor=#232F3E;fillColor=none;verticalAlign=top;align=left;spacingLeft=30;fontColor=#232F3E;dashed=0;movable=1;resizable=1;rotatable=1;deletable=1;editable=1;locked=0;connectable=1;" parent="CrBskSO4nDhFndBRX1B0-1" vertex="1">
          <mxGeometry x="1400" y="-1424" width="430" height="390" as="geometry" />
        </mxCell>
        <mxCell id="sNYwx5eS7knzUlJCa3ny-3" value="HDFS Cluster" style="verticalLabelPosition=middle;verticalAlign=top;html=1;shape=mxgraph.basic.rect;fillColor2=none;strokeWidth=1;size=20;indent=5;strokeColor=#7aa116;labelPosition=center;align=left;fontSize=18;" parent="sNYwx5eS7knzUlJCa3ny-0" vertex="1">
          <mxGeometry x="40" y="190" width="350" height="170" as="geometry" />
        </mxCell>
        <mxCell id="PwJ3uAUTG8c82joHV-oM-2" value="" style="group;fontSize=17;fillColor=#dae8fc;strokeColor=#6c8ebf;" parent="sNYwx5eS7knzUlJCa3ny-0" vertex="1" connectable="0">
          <mxGeometry x="107.5" y="41" width="185" height="110" as="geometry" />
        </mxCell>
        <mxCell id="PwJ3uAUTG8c82joHV-oM-3" value="&lt;span style=&quot;font-size: 18px;&quot;&gt;Ranger&lt;/span&gt;" style="verticalLabelPosition=middle;verticalAlign=middle;html=1;shape=mxgraph.basic.rect;fillColor2=none;strokeWidth=1;size=20;indent=5;strokeColor=#6c8ebf;labelPosition=center;align=center;fontStyle=0;fontSize=18;fillColor=#dae8fc;" parent="PwJ3uAUTG8c82joHV-oM-2" vertex="1">
          <mxGeometry width="185" height="110" as="geometry" />
        </mxCell>
        <mxCell id="PwJ3uAUTG8c82joHV-oM-9" value="" style="shape=image;verticalLabelPosition=bottom;labelBackgroundColor=default;verticalAlign=top;aspect=fixed;imageAspect=0;image=data:image/jpeg,/9j/4AAQSkZJRgABAQAAAQABAAD/2wCEAAkGBxISEhISEhIWEhUXGBcaGBgXFRoYFxgYGx8bFxgiFx0dHSghHR4lHRoXITIiJisuLi4vFx82ODYtNygtLisBCgoKDg0OGxAQGi0lIB0rLS0tKy0tLSsuKystLS0tLSsrLS0tLS0tLSstLS0tLS0rLS0tLS0tLS0tLS0tNy0tN//AABEIAIgAiAMBIgACEQEDEQH/xAAcAAACAgMBAQAAAAAAAAAAAAAABwUGAQIECAP/xABLEAABAgMEBwQFCgEICwAAAAABAgMABBEFEiExBgcTQVFhcSKBkaEUMnKSsSMzQlJTYoKiwfAkF0NkstHT4eMWJURUY6Oks8LS8f/EABgBAAMBAQAAAAAAAAAAAAAAAAADBAIB/8QALBEAAgIBBAAEBAcBAAAAAAAAAAECEQMhMUFREjJhcRMjgcFCUpGhseHwBP/aAAwDAQACEQMRAD8AeMEEEABBGIruk2mEtJAhar7lMG04q4i9uSOZ84Em3SON0rZYFGKnb+n0nLVSFbdwfRbII71VoO6vSKFOW5aNrKUhobNkesEm62kcXV78N3lHCW7PlMFEz7w3IN2XSeas3KGmWBrjDo4lyIllfBLzOntpTaiiVbuDg2i+un3lUIHgI45qxbTXjNTAaB+3mgnwSFGkRM9pfNOC4lYl2tzbADaRy7OJHUxBqUTicT4/rDlFrakKc099Szp0YXXs2hJFXATJrXkaR3NSdtS4vtrdcQN7boeT7tVfARSax9pWbcbN5tamzxQopPiMY603vTOKSRf7L1nTDRuTbN+hxIGzcHUEXT+XrDAsHSeVm/mXRe3oV2V+BzHMVEJ5rS9awETjTc4gYVWLro9lxONY+qLDl5nt2e+UuDEMPEIcr/wljsqPgRxhcsa9vbYZHJLjVD3TGYT1iawJqTXsJ5CnAMDeBDyR3+v358TDPsa2mJpF9hwODeAReT7QzEIlBxHxmmSYgjAjMZNhBBBABiIu27fl5RN591KN4TWq1eykYmF/rP0qmW5kSss4WwEJvXKX1KVkK/RwpvHrRW5ux5ZlZNoTi3XvptNJKnKnGi3FYVyr3wyOPliZZa2Ji29YM1Nr2Ei2pAVgCkXnVceSBljTvEQ6rIlpSq7Qc272fozS6m9n8s59HjTPfjSkc05pYoILUm2mTaOBuEl1XtuZ+HGK4Tjj3/vl+sUKNLTYQ5W9dyatnSV6YAbF1lkeqy2LqB1p6x9rfELWGTpRoi09LJmpRAbUGkOFCRRLjZAJKRuUneN/UiFzLsKcUENpK1HIJF4k9BjHYSi1oZnGSeppWCsXqytV824Ap1aJcHcarX4AgAd4ibGqJF0gzar3HZpp4Xv1g+LDs18KfQqqwViT0ksJ2TeUy6OaVAdlac6iIusbTvUW1WhmsZCqYjDpgfGNawVgAs0ppSFoDM816U0MAvAPtj7ixiRyPwj7psV1v+Ksx9T6U4kI7L7Y4LQMx0qMMqRUqx9pOccaWHGlqbWMlJJBH+EYcev07NKXYz9G9aIwbnU3TltUDDh20jI9K9BDHkp1t5IW0tLiTkUqqIRn+kMtNCk+x2/94Yolz8afVX1MZFnqYbcmrOni4hF3aBN5p1IJ7N5JoFprn/ZWEyxp+jHRyteo+0wRTNV+kLs5LubdQW42qhUBSqSKio41vDpSCEtU6KIu1ZT9Mm/9fMVyU5K/FIx8IpukyyZyaJz2ztfeMXTWSAi2JVfEMK60cI7sop+mCLs9OA/bunxUVfrFUH/BHPd+5E1grGtYKw0UNHVVa5U05LZuNVcaGFVIJ+UR0Jp3qB+jF10W0blpa+4yKlZrfOd1QCgE8E0IhHaLNPrmmUy5KXCoUUK9kfSJ5AVPdHoiSF0qRvF0/hIoPNKolyqmV4XaOuMxw2lajEum8+6hofeUBXoN8U20daksk3JdtyZVuoLiSeAJxr+GFKLeyGuSW7LhbNjsTSLj7YcTurmDxBGI7jCy051eNsMmYlb5uYrQTe7P1k4Vw38ieESibbt2a+ZlUSyT9JYoodb5x7kGOhOiFpPj+KtNQBwKWgQkjeDS58IZC4816CpVPgTNYKw52dU0kM3H1H2kU7uxGj+qaTNbrz6TzUggd1wV3Q1ZoCnhmJusFY6bXkiw+6yVBRbWpBIyJSaRyVhy1FNVobViyaFmonwcvQn6910j81PGKzWLLofg1aK9wlFo5VWpGfhGZ+V/Q7DzL6l41IJ+SmlcVoHgCf1gjo1JtUlX1cXiPBKP7YIly+dlmLyIiNd7BS7KPDelafdKVD+sYqmsVI9PdWMnEtuJ5hSEE+ZMMXXTKXpNtwZtujuCgUnzuwu9MO2zZsxuXLbM81MKKT/4w7E7UV7oRlWsis1grGsddl2c7MuJaZQVrVkBw5nIDmYbaq2I1vQtuq22JaVemHZhYR8l2Scz2k3gneT6poOB4RZ39K7QtAlFmy5abyLyxQ06nBJ5CpEdGi2q9lqjk2duvDsZNp6719+HKLbpDbDMhLqdWKJTRKUJoKn6ISPjwAJ3RLKcXK0tSqMJeGm9CpWXqwSpW1nphcws4kBRA6FR7R8osanLNs1NCWZbDIU2ihzAqpXnCwGmFoWlMtyyHjLJcXdo0MUjeSrBRoAcAoVicXqfKiVGeqSd7FT/AN2OtfnYJr8COu1tbbCapl2VOncpZCE9wxJ8oiZTW89fG1l2yjfcKgqnKtakY4R1fyOf07/p/wDNgOpz+m/8j/NjvyqOfNGXKzzbjSXkqFxSQsKOAukVqdw74Xem+stASpiSVeUahTo9VPG5xPPLhXdy27oHaXo6WW5sTDTYN1r5onEq4lKjjvOELGZZU2pSFpKFJNCkggg8wcoMeOLd2GTJJKqNVLJJJNScSTmTvrzjFYxWCsUkxmsWaxDcs20V5X1S7aT+IrV5ARWKxZ5v5OyZdJ/n5l1z8LaQ38axme3v9jcFbGpqmlrlnNHK+pxX5ikeSYInNE5TZSUq3ShS0ivtEVV5kwRHN3Jstgqijm05kNvIzTYFTsyocyjtgeKfOEv89ZAOapaY8G3h/wC4j0G4K1BxhGWNZ2zm7Rss1o6hxLdd62yXWT3pFe+GY3pXWonLHW+9Cj1h06nRKiVqhSfSFKO1FRfoCQgAZ3btDhvJhKGCsPnHxLcRCXh4PVinABVRA5kgQttcc0y7LNhEw2paHASgOJKiCCmt2tcKj3jCcrBWMRw07sZLP4lVEro3bSpN9MwhCVqSFABVaAEXcaHgTvj0RozPOPyrDzqQlbiAohNaAHFNKknKkeaJNkuOIbTmtSUjqSAPMx6kk2A22htOSEhI6AUHwjGerNf89kFp5pEqQltshKVLK0pSFZVOJrSm4GKFIa33b428ugo33CoEbica1pnT9j6a85/tS0uDkFOEdewn4LhfWJYMxNrCGGlKqaFVOwkbyVZDL9OEEILw2wnkl46iemJV9K0JWk1SoBQPEHEQrdd1kIAYm0gBRVs1n62BUivS6od8M6zZQMstNJxDaEoHRICR8IXOvG0EhmXl69or2hHBKUqT5lX5YXj8w3J5BQVgrGsFYtIUbVi7W1I35mzLP+o0wlY4LcO0dPumvdFd0Ts70icl2qVClgq9lPaV+UKi8aBD022JibzQguKSd2PybQP4Cr3YXN89fcZBWOJIwggEERlwGFFrXlVSs9LWg2Mym97beIvclIoKfcMN2IDTewxOyjrP06Xm+S04jxxT0UY1B07MTVoRmnMgluaUtv5mYCXmjxS52qdyiR3RX6xcJJszsiuVIrMyZUtoHNTJ+cRzKTjTfSkU4/v97+sVxfBFPszWCsawRswWvVlI7a0pcEYIJcPK4Kp/Ncj0PCf1FyFXJl8j1UpQPxG8r+qmG6+4EpUpWAAJPQA18okyu5FmFVGyuWhp7ZzLi2nJi6tCqKGzcNCN1Upp5xZGVhSUqSaggEdDlHle0ZovOuunNa1rPVRqfjHobV1aG3s6WVvSjZnkUdgeQB74J41FJncWRybRH6a6ftyCyxsVuOlIUK0DdDhUmtTjup4Qkratd2beU+8arV7oGQAG7Cn+OcMzXnZvZlpkDIqbUeSu0jwovxhRw3DGNWJzSl4qM1grGsdFnya3nUNNi8tZCQOJPHkBj/8AIdxYhJ7Fl0aHo0nOTpwUsejs81LxdI4FKMjzIhl6n7H2EltVCi31XudwdlHd6yvxxRJ6TE1OSllS5qzL9lSxvX60wv4gcxzh4yrKW0IQgBKUpCUgZBIFAB3RLkZXijrfR9hBAIISUGY1MbQQAKHWTYjslNItSUw7QLgGSVnCqvuLqQeZPHCu2lo0J5Cp6z0i6QVPMV7bTmag2KdoH1h06CHzNsJcStCwFJUCFJORBwP6wptMdBlyAROWaVp2RBWkEkil7tgb0gEgjcOOMOhPh/70J8kK146+4qontCtHPT5kMXy2LqlKUBWgGAww3lPjElaVnotFC5uTQEPpF6Ylk+bjP1knhnXqIitFNKXrPW44whtalpCTtEqVQVrhdWnM092H3a9SeknrsPjQvRlFnsKZSsuXllZUU3akhIyqdyREna8kX2HWb1zaIUi9StAoUOGG6sJv+WGf+ylvcc/vYwdcE/8AZS3uOf3kT/DndlPxYVRWdMrDRIzKpZDm1upQSSm7RRF4bzuIhjajLQqzMsE4pWlY6LF006FI96FRbNprmXnJhyl9w3jQEDlSpJpSm+O3RXSZ6QdU6yEKKklBCwoppUGuBGOHhWHyi3AnjNRnZ6D0qsJE9LLl1qKLxSQoCpSQQcsOFO+EFpnYaJGaVLocLt1KSSU3aKVjTM7iIsg1wT/2Ut7jnn8pFRnJh+0JpSwi+88r1UA03UABJIAAzrhGMcZR32GZZxltuclnSLj7iGWkla1miU/HkAM6xcXGBY7awVBVoOgpTdNRLtHC9X7RW47gRlXtfJ1wSCDJyh20872HnUVOzr/NtEZq3FXHLH1b/obq6aZDL81V2ZSQrE1SggAJFMlXePGNTnz+3f8ARmELPrqt0TMoyXnk0feAqCMUN5hJ5nM9Bwi9pgEZiWTt2VxSSoyIIBBHDQQQQQAEaLH7/e6N4IAFLptoO9Lu+n2bVKkm8ptAxBzJbG8HejrnXCrLYl7V7TdyWnt6Dg1MHeUHJLh+qcK06x6AUYoOm+rdqbvPS9GH8zhRCzzp6qvvCGwycMRPHyhHzsm4ytTbqC2tJoUqFCP3nHwrF3mrVcbIlLZllPJSKJcwD6BxbcyWnkTTiTHFMaHl1Jds95M62MSgdl9A++2TUjpFCl3oTOPRVawVjslbKfdc2LbLi3BmgIN4c1DdTnxixJ0flZPtWg9tHB/srCry68HXMkdBj8I74kt9Tii3toQ9gaPvziiGk3UpxcdUbrbad5Wo/AY790WBNooY/g7KSp15zsrmaEOK4pYH0EcVd+6o+sozP2vRmXbTLSaT6qQUMp5qObi/14Q19EdDpez0/Ji+4fWcUBePT6o5Qqc0t9+hsMd7ETq90DTIpDz1FzKhmMmxvSjieKu7AVrekxkRmJm23bKoxUVSCCCCA0EEEEABBBBAAQQQQAEEEEAEfbFkMTSC2+0l1PMYjocx1EK63NVDzStrZ7xqDUIUopcHsLBHnTrBBGoTa2MTgpK2RiW9IZisqrboAwUpQDYIP1nKC+KVwBOe+LLozqmZbIcnF7dX2aahsdd6+mA5RmCNSyNKkYhjT1YyZZlKEhCEhKRgAkUAHICPrBBCxwQQQQAEEEEABBBBAB//2Q==;" parent="PwJ3uAUTG8c82joHV-oM-2" vertex="1">
          <mxGeometry x="3" y="3" width="20" height="20" as="geometry" />
        </mxCell>
        <mxCell id="sNYwx5eS7knzUlJCa3ny-5" value="" style="group;fontSize=17;" parent="sNYwx5eS7knzUlJCa3ny-0" vertex="1" connectable="0">
          <mxGeometry x="40" y="190" width="350" height="170" as="geometry" />
        </mxCell>
        <mxCell id="sNYwx5eS7knzUlJCa3ny-8" value="" style="group;fontSize=16;" parent="sNYwx5eS7knzUlJCa3ny-5" vertex="1" connectable="0">
          <mxGeometry x="14.583333333333332" y="52" width="320.8333333333333" height="100" as="geometry" />
        </mxCell>
        <mxCell id="sNYwx5eS7knzUlJCa3ny-7" value="" style="rounded=0;whiteSpace=wrap;html=1;strokeColor=#0080f0;" parent="sNYwx5eS7knzUlJCa3ny-8" vertex="1">
          <mxGeometry width="320.8333333333333" height="100" as="geometry" />
        </mxCell>
        <mxCell id="sNYwx5eS7knzUlJCa3ny-6" value="&lt;i style=&quot;font-size: 16px;&quot;&gt;&amp;lt;rootFolder&amp;gt;/&amp;lt;folder&amp;gt;&lt;/i&gt;" style="text;html=1;strokeColor=none;fillColor=none;align=center;verticalAlign=middle;whiteSpace=wrap;rounded=0;fontSize=16;" parent="sNYwx5eS7knzUlJCa3ny-8" vertex="1">
          <mxGeometry x="14.583333333333332" y="46" width="291.66666666666663" height="30" as="geometry" />
        </mxCell>
        <mxCell id="sNYwx5eS7knzUlJCa3ny-9" value="" style="html=1;verticalLabelPosition=bottom;align=center;labelBackgroundColor=#ffffff;verticalAlign=top;strokeWidth=2;strokeColor=#0080F0;shadow=0;dashed=0;shape=mxgraph.ios7.icons.folder;" parent="sNYwx5eS7knzUlJCa3ny-8" vertex="1">
          <mxGeometry x="4.38" y="3" width="25.63" height="19.5" as="geometry" />
        </mxCell>
        <mxCell id="OxJwLksBm6VtAncuemdJ-0" style="edgeStyle=orthogonalEdgeStyle;rounded=1;orthogonalLoop=1;jettySize=auto;html=1;curved=0;entryX=-0.007;entryY=0.391;entryDx=0;entryDy=0;entryPerimeter=0;" parent="CrBskSO4nDhFndBRX1B0-1" source="4fnjIGI5G4VHq082C5wX-1" target="PwJ3uAUTG8c82joHV-oM-3" edge="1">
          <mxGeometry relative="1" as="geometry">
            <mxPoint x="1567" y="-996" as="targetPoint" />
            <mxPoint x="1049" y="-748" as="sourcePoint" />
            <Array as="points">
              <mxPoint x="1310" y="-1340" />
              <mxPoint x="1310" y="-1340" />
            </Array>
          </mxGeometry>
        </mxCell>
        <mxCell id="OxJwLksBm6VtAncuemdJ-1" value="Creates roles and &lt;br&gt;access policies" style="edgeLabel;html=1;align=center;verticalAlign=middle;resizable=0;points=[];fontFamily=Helvetica;fontSize=16;" parent="OxJwLksBm6VtAncuemdJ-0" vertex="1" connectable="0">
          <mxGeometry x="0.0402" y="7" relative="1" as="geometry">
            <mxPoint x="-65" y="-21" as="offset" />
          </mxGeometry>
        </mxCell>
        <mxCell id="CCeAQmdglHYrbfhdzhxx-0" style="edgeStyle=orthogonalEdgeStyle;rounded=1;orthogonalLoop=1;jettySize=auto;html=1;curved=0;" parent="CrBskSO4nDhFndBRX1B0-1" source="4fnjIGI5G4VHq082C5wX-1" target="sNYwx5eS7knzUlJCa3ny-7" edge="1">
          <mxGeometry relative="1" as="geometry">
            <mxPoint x="1489.9999999999998" y="-748.02" as="targetPoint" />
            <mxPoint x="1049.5" y="-661.8888888888887" as="sourcePoint" />
            <Array as="points">
              <mxPoint x="1350" y="-1320" />
              <mxPoint x="1350" y="-1132" />
            </Array>
          </mxGeometry>
        </mxCell>
        <mxCell id="CCeAQmdglHYrbfhdzhxx-1" value="Creates HDFS&lt;br&gt;folder" style="edgeLabel;html=1;align=right;verticalAlign=middle;resizable=0;points=[];fontFamily=Helvetica;fontSize=16;" parent="CCeAQmdglHYrbfhdzhxx-0" vertex="1" connectable="0">
          <mxGeometry x="0.0402" y="7" relative="1" as="geometry">
            <mxPoint x="-17" y="93" as="offset" />
          </mxGeometry>
        </mxCell>
        <mxCell id="4fnjIGI5G4VHq082C5wX-0" value="" style="group" vertex="1" connectable="0" parent="CrBskSO4nDhFndBRX1B0-1">
          <mxGeometry x="870" y="-1368" width="361" height="80" as="geometry" />
        </mxCell>
        <mxCell id="4fnjIGI5G4VHq082C5wX-1" value="&lt;font style=&quot;font-size: 25px;&quot;&gt;CDP Private - &lt;br&gt;HDFS Tech Adapter&lt;/font&gt;" style="rounded=0;whiteSpace=wrap;html=1;hachureGap=4;fontFamily=Helvetica;fontSize=20;verticalAlign=middle;fillColor=#dae8fc;strokeColor=#6c8ebf;align=right;spacingLeft=0;spacingRight=12;" vertex="1" parent="4fnjIGI5G4VHq082C5wX-0">
          <mxGeometry x="1" width="360" height="80" as="geometry" />
        </mxCell>
        <mxCell id="4fnjIGI5G4VHq082C5wX-2" value="" style="shape=image;verticalLabelPosition=bottom;labelBackgroundColor=default;verticalAlign=top;aspect=fixed;imageAspect=0;image=data:image/jpeg,/9j/2wCEAAgGBgcGBQgHBwcJCQgKDBQNDAsLDBkSEw8UHRofHh0aHBwgJC4nICIsIxwcKDcpLDAxNDQ0Hyc5PTgyPC4zNDIBCQkJDAsMGA0NGDIhHCEyMjIyMjIyMjIyMjIyMjIyMjIyMjIyMjIyMjIyMjIyMjIyMjIyMjIyMjIyMjIyMjIyMv/AABEIARgBGAMBIgACEQEDEQH/xAGiAAABBQEBAQEBAQAAAAAAAAAAAQIDBAUGBwgJCgsQAAIBAwMCBAMFBQQEAAABfQECAwAEEQUSITFBBhNRYQcicRQygZGhCCNCscEVUtHwJDNicoIJChYXGBkaJSYnKCkqNDU2Nzg5OkNERUZHSElKU1RVVldYWVpjZGVmZ2hpanN0dXZ3eHl6g4SFhoeIiYqSk5SVlpeYmZqio6Slpqeoqaqys7S1tre4ubrCw8TFxsfIycrS09TV1tfY2drh4uPk5ebn6Onq8fLz9PX29/j5+gEAAwEBAQEBAQEBAQAAAAAAAAECAwQFBgcICQoLEQACAQIEBAMEBwUEBAABAncAAQIDEQQFITEGEkFRB2FxEyIygQgUQpGhscEJIzNS8BVictEKFiQ04SXxFxgZGiYnKCkqNTY3ODk6Q0RFRkdISUpTVFVWV1hZWmNkZWZnaGlqc3R1dnd4eXqCg4SFhoeIiYqSk5SVlpeYmZqio6Slpqeoqaqys7S1tre4ubrCw8TFxsfIycrS09TV1tfY2dri4+Tl5ufo6ery8/T19vf4+fr/2gAMAwEAAhEDEQA/AH0UUV8kfeBRRRQAUUUUAFFFFABRRRQAUUUUAFFFFABRRRQAUUUUAFFFFABRRRQAUUUUAFFFFABRRRQAUUUUAFFFFABRRRQAUUUUAFFFFABRRRQAUUUUAFFFFABRRRQAUUUUAFFFFABRRRQAUUUUAFFFFABRRRQAUUUUAFFFFABRRRQAUUUUAFFFFABRRRQAUUUUAFFFFABRRRQAUUUUAFFFFABRRRQAUUUUAFFFFABRRRQAUUUUAFFFFABRRRQAUUUUAFFFFABRRRQAUUUUAFFFFABRRRQAUUUUAFFFFABRRRQAUUUUAFFFFABRRRQAUUUUAFFFFABRRRQAUUUUAFFFFABRRRQAUUUUAFFFFABRRRQAUUUUAFFFFABRRRQAUUUUAFFFFABRRRQAUUUUAFFFFABRRRQAUUUUAFFFFABRRRQAUUUUAFFFFABRRRQAUUUUAFFFFABRRRQAUUUUAFFFFABRRRQAUUUUAFFFFABRRRQAUUUUAFFFFABRRRQAUUUUAFFFFABRRRQAUUUUAFFFFABRRRQAUUUUAFFFFABRRRQAUUUUAFFFFABRRRQAUUUUAFFFFABRRRQAUUUUAFFFFABRRRQAUUUUAFFFFABRRRQAUUUUAFFFFABRRRQAUUUUAFFFFABRRRQAUUUUAFFFFABRRRQAUUUUAFFFHWgAorstE8BT3kSXGoytbxOMiJB+8/HPT9fwroj4C0Ty9vlzZ/veac/4V2QwNaava3qedVzTD05ct7+h5XRXW+I/Bh0i2e9tbkPbLjKykBx9D0NYvh/TotW1y2sZ2dY5d2ShAPCk9wfSsJ0JwmqclqzphiqU6TqxeiMyius8WeF7LQbO3mtpbh2kk2ESspGMZ7AVydKrSlSlyy3LoV4V4c8NgoorrfD/AIJm1OJLu9doLZxlVX77j156CilSnVlywQq+Ip0I81R2OSor1mPwNoKJta1dz/eaZs/oRWVqvw8geMyaZO0cg/5ZynKn6HqP1rqll1ZK61OGGb4eUrO6PO6KkuLeW1uHgnjaOWM7WVuoNdR4P8OWOuQXT3ZlzEyhdjY6g+1ctOlKpPkW53Vq8KNP2ktjk6K3vFuj22iatHbWpfy2gEh3tk5LMP6ViQoJJ40PRmAP50pwcJuD3Kp1Y1KaqR2YyivR9U8D6TZ6TeXMRuPMigeRcyDGQpI7V5xV1sPOi0pdTLDYuniE3DoFFemD4daSR/x83v8A32n/AMTSN8OdL2nbdXgbHBLKR/6DXR/Z1fscv9rYbz+480orqtY8C3+nRNPbSC7iXkhRhwPp3/D8q5ZSMgsCV7gHBrlqUp0naasd1HEU60eam7iUV6BpXg3QtW0+O7t7q92uOQXTKnuD8tXf+FdaT/z83v8A32n/AMTXTHAVpK6t95xyzXDxdne/oeZUV6b/AMK60n/n5vf++1/+Jrzi7iW3vZ4VJKxyMgJ64BxWNbDVKKTn1N8PjKWIbVPoQ0V3+keBdN1DSLW7luLtXmjDsFZcAn0+Wr3/AArrSf8An5vf++0/+JraOArSSaRhLNcPFuLvp5HmVFd7qPw62xs+nXjFh0jnA5/4EP8ACuFlikgmeKVCkiMVZT1BHWsKtCpS+NHTh8VSxC/dsZRRXoOleALO40u3nvZrpLiRN7KjKAM8gcqe2KKNCdZ2gGIxVPDpOo9zz6irmqWD6ZqdxZvn905AJ7r2P5YqnWUouLszeMlKKktmFFFFIYV0vgjS01DXRLKMx2q+Zj1bPH+P4VzVdp8OZ0TU7yEn5niBX8Dz/OujCRUq0Uzkx8pRw03HsbvjTxDPo9tFbWhC3E+Tv7oo9Pc/0Nec/wBqah53nfbrnzc53+ac5/Out+JFvILuyucfuyhjz6EHP9f0rh61x1SftnFvRHPllGn9XUravc0NR1vUdVjiS9uWlSIfKMADPqcdT71e8F/8jbY/8D/9AasGt7wX/wAjbY/8D/8AQGrGjJyrRcnfVHTiIRhhpxirKzOp+JH/ACC7P/ruf/QTXnFej/Ej/kF2f/Xc/wDoJrzitsw/js58p/3ZerNbwzp6an4gtbaZd0JJZx6gAnH8h+NeoeINVGh6NJdBQzjCRqehY9Pw7/hXnvgWZYvFEKt/y0jdB9cZ/pXX+PrWS58OBo1LeRMsjADPGCP6104R8mFlOG5xY9KpjYU5/DoefT+INXuJvNfUrkNnI2SFQPoBwK7XwT4luNRkk0++k8yVV3xyHqwHUH1rziup8BWjz+IhcDIS3jZmPYkjaB+pP4Vy4SrU9stb3O7H4ej9Xk7JWWhqfEbT0AtdRRQGLGKQj+LjI/kam+G3/HrqH++n8jU/xGkUaPaxfxNcbh9ApB/mKrfDZx5Oop/EGjP/AKF/hXbZRxyt/Wh515Syx36P9TM+Iv8AyMMH/Xqv/oTVy1t/x9Q/76/zrq/iLGw1y3kI+VrcKD7hmz/MVy1mjSX1vGgLO0qqAO5JrgxSf1iXqepgWvqkfQ9l13/kXtS/69ZP/QTXide1a+4Xw7qJJxm2kH/jprxWurM/jicWS/w5+p7J4ollg8NXksMjxyKg2sjEEcjuK8rTXdXjcMup3mR6zMR+RNeo+Lf+RVvv9wf+hCvHqWZSlGorPoPKKcJUpcyT1/Q9S8H+I5dbglt7vBuoQCXAwHU98diP6iuR8b6Ymn68zxLtjuV83A/vZ+b/AB/GtL4c2kpv7q8wwiWPys9ixIP6AfrSfEe6WTULO2H3oo2c/wDAiB/7LVVG6mDUp7kUYqlmLhS2e/3HN6WdYkLwaXJef33S3dh7ZIB+laX2bxh/1Fv+/j/41X8L61BoWpSXU8UkgaIxhUx3IPf6V1v/AAsew/58bn81/wAawoRpOF51GmdWJlXjUap0lJdzk7t/E9jD511PqcMecbnlcDP51iMzOxZmLMxySTkk113ibxfa65pQtIbaaNvMD7nIxxn0+tchWGI5VK0JXR04TncOapBRfkew6IceDrUjr9l/pXkv267/AOfqb/v4a9e8OhT4VsQ+Nn2cbs+mKp2uheFb0sLWC0nK/e8qbdj64NepXw860IcrtoeJhsVDD1KnPFu7/wAyj4B1O+v7S7ju5XmSEqI3fk85yM9+g/OuZ8dxRx+J5CigF4kZsdz0/oK7m/1TSfCdksSQ+XuBMcMSffPc56fUmvLdU1GbVdRmvZ+HkPCjoo6AflWGMkoUVRbvI6cvhKpiZV4x5YsueF9L/tbXoIHBMSfvJP8AdHb8TgfjXo+ra+mm6xptiSv+kP8Avc9VU8Kf++v5Gsv4f6X9m0t79wfMuThc9kH+Jz+lVNf8I6xq+tzXqT2qoSBGGdgVAHH8P4/jWlGFSjh04K8m/wADHE1KWIxTjUlaMU18/wDh/wAhnxE03/j31KNP+mUpA/FSf1H5VwVe0XOny6l4feyvjH58sW2Rk5Xf/eHTvzXjU0TwTyQyDDxsVYehBwa5swpctTnXU7Mpr89J0nvH8hlFFFcB6wVa06/l0zUIbyH78TZx2I7j8RVWimm07oUoqScXsz2G0v8ASPFWntGQsy4HmQuMMh/z3FZP/CvNMNwX+0XIizny8jp6ZxmvNkkeJw8bsjjoynBFXxr+sCLyxql3tzn/AFzZ/POa9D67Tml7WF2eR/Z1ak37CpZM7Hxdpfh+w0dIlCW90g/cCMZd/ZvUe56fpXN+C/8AkbbH/gf/AKA1Ybu8rl5HZ2PVmOSaI5JIZBJE7I46MpwR+Nc88QpVVUUbJHXTwkoYeVJyu3fV+Z7NrehWuvW8UN1JMixtvBiIBzjHcGsT/hXWkf8APze/99p/8TXnn9pX/wDz+3P/AH9b/Gj+0r//AJ/bn/v63+NdM8ZRm+aVO7OOnl2Jpx5YVbI1/EWmx+GNdt10+aYlY1mVpCCQ25h2A44rv9D1+y8QWO3KLPtxNbt+vHcV5HLPLO4eaV5GAxl2JOPxpqO0bh0Yq46MpwRWNLF+yqNxXuvodFfAe3pRU5e8up6lceAdFnnMqfaIQTkpG42/qDWtFDpnh3TW2eXbWycszHqfc9Sa8qXxLrSKFGp3GB6vk/mao3V9dX0m+6uJZm9XYmuj67Rh71OGpyf2biKlo1al4mp4o1467qQdAVtogVhU9fcn3P8AQUnhfWV0TWUnlJ+zyL5cuOcD1x7H+tYtFcHtp+09r1PV+rU/Y+xtoe0XlhpniOxTzds8LDdHJG3I9wap6T4P0vR7r7TEJZZR91pmB2fTAFeW2mpX1gc2l3ND6hHIB+o6VYn8QavcxGOXUbhkPUb8Z/Ku/wCvUZNTlD3jyf7MxEU6cKnuv1Ov8c+IofszaTaSBpGI89l6KBztz65xXn1FFcNevKtPnZ6uFw0cPT5InuOoWMWqadLZzM6xygBihAI5zxmuei+H2jRSBnku5VHVHkGD+QB/WvOf7Svv+f25/wC/rf40jaheuu1ru4YHsZCf612zxtGbvKF2ebTyzEU1ywq2R6pfa1o3huz8iNowUGFt4cbs+47fU15ZqWoTapqE15OfnkbOOyjsB9BVXrSgkEEEgjoRXNiMVKtZWskduEwMMPeV7yfU7nQvAcN5psdxqT3MM0nzCOMgbV7ZyDzWn/wrrSf+fm9/77T/AOJrzz+0r7/n9uf+/rf40f2lf/8AP7c/9/W/xrSOIw8Uk6dzCeFxcpNqrY9D/wCFdaR/z83v/faf/E15xdxLb3s8KElY5GQE9cA4qT+0r7/n9uf+/rf41WJLMWYkknJJ71jXq0ppckbHRhaFam26s+Y9g0T/AJE61/69f6V5XpWqXOkXyXVsxBB+ZM8OPQ1Et9dpGI1up1QDAUSEDH0qvV1sV7Tl5dHEjDYL2XtOd3Uj12WLT/GPh8MrAbh8r4y0TjqP89RXmn9h3ia4mkyRlZ2cLxyMf3vpjmqUN1cW4IhnljB5IRyM/lSm7uTKJTcSmRRgOXOQPrRWxEK1nKOq38xYbCVMPzRhL3Xt5HrHiDUh4c8P5tVQOu2GBSOB/wDqANcP/wAJ3rn/AD0h/wC/Qrn5rq4uFCzXEsgByA7k4/OoadbGznK8HZCw2W06cbVEpPuej+EfFV1quoS2l+8ZZk3RbVxyOo/Ln8Kw/Hml/Y9YW8jXEV0MnA6OOv58H865aOR4nDxuyOOjKcEVJNd3NwoWa4lkUHIDuSM/jSnivaUfZz1fccMD7LEe1puy7ENFFFch6AUUUUAFFFFABRRRQAUUUUAFFFFABRRRQAUUUUAFFFFABRRRQAUUUUAFFFFABRRRQAUUUUAFFFFABRRRQAUUUUAFFFFABRRRQAUUUUAFFFFABRRRQAUUUUAFFFFABRRRQAUUUUAFFFFABRRRQAUUUUAFFFFABRRRQAUUUUAFFFFABRRRQAUUUUAFFFFABRRRQAUUUUAFFFFABRRRQAUUUUAFFFFABRRRQAUUUUAFFFFABRRRQAUUUUAFFFFABRRRQAUUUUAFFFFABRRRQAUUUUAFFFFABRRRQAUUUUAFFFFABRRRQAUUUUAFFFFABRRRQAUUUUAFFFFABRRRQAUUUUAFFFFABRRRQAUUUUAFFFFABRRRQAUUUUAFFFFABRRRQAUUUUAFFFFABRRRQAUUUUAFFFFABRRRQAUUUUAFFFFABRRRQAUUUUAFFFFABRRRQAUUUUAFFFFABRRRQAUUUUAFFFFABRRRQAUUUUAFFFFABRRRQAUUUUAFFFFABRRRQAUUUUAFFFFABRRRQAUUUUAFFFFABRRRQAUUUUAFFFFABRRRQAUUUUAFFFFABRRRQAUUUUAFFFFABRRRQAUUUUAFFFFABRRRQAUUUUAFFFFABRRRQAUUUUAFFFFABRRRQAUUUUAFFFFABRRRQAUUUUAFFFFABRRRQAUUUUAFFFFABRRRQAUUUUAFFFFABRRRQAUUUUAFFFFABRRRQAUUUUAFFFFABRRRQAUUUUAFFFFABRRRQAUUUUAFFFFABRRRQB//2Q==;fontFamily=Helvetica;" vertex="1" parent="4fnjIGI5G4VHq082C5wX-0">
          <mxGeometry width="80" height="80" as="geometry" />
        </mxCell>
        <mxCell id="4fnjIGI5G4VHq082C5wX-4" value="" style="group" vertex="1" connectable="0" parent="CrBskSO4nDhFndBRX1B0-1">
          <mxGeometry x="559" y="-1377" width="200" height="98" as="geometry" />
        </mxCell>
        <mxCell id="1LrZQP8tYeefJCKVqhzE-7" value="" style="rounded=0;whiteSpace=wrap;html=1;hachureGap=4;fontFamily=Helvetica;fontSize=20;verticalAlign=middle;fillColor=#fff2cc;strokeColor=#d6b656;glass=0;" parent="4fnjIGI5G4VHq082C5wX-4" vertex="1">
          <mxGeometry width="200" height="98" as="geometry" />
        </mxCell>
        <mxCell id="-yCW6BhoU4MdwBzuF0dz-0" value="" style="shape=image;verticalLabelPosition=bottom;labelBackgroundColor=default;verticalAlign=top;aspect=fixed;imageAspect=0;image=data:image/png,iVBORw0KGgoAAAANSUhEUgAABUgAAAD3CAYAAADPJr6lAAAACXBIWXMAAC4jAAAuIwF4pT92AAAgAElEQVR4nO3dDWyd5Z3n/dsvcV6c4KQYesIWbCbMUCpaG3V2mzIRNh0x7fOwTMxoZmiXleyUjlQ98gpn9lkRFkYxGlhAOzsx6pGekaZVbGn7UGZmi720O2VQi82klHbbSVwQlDZpYtomh3AgMYnz4tfV5fxPuOP45bzcL9f/ur4fKYLOtDn3uX18n/v63f///6qam5sLAACISz6bsfmLZqSxO9duwXGkLp/NNAdB0KXw0Icbu3PDFhwHAAAAAKVq+cEBAIAgCExAulvpiSAgBQAAgLfy2UyX5cUO/Y3duX4LjmNJBKQAAAAAAACAXqbYoc3io7e+oKHagmMAAAAAAAAAgFQQkAIAAAAAAADwFgEpAAAAAAAAAG8RkAIAAAAAAADwFgEpAAAAAAAAAG8RkAIAAAAAAADwFgEpAAAAAAAAAG8RkAIAAAAAAADwFgEpAAAAAAAAAG8RkAIAAAAAAADwFgEpAAAAAAAAAG8RkAIAAAAAAADwFgEpAAAAAAAAAG8RkAIAAAAAAADwFgEpAAAAAAAAAG8RkAIAAAAAAADwVi0/egAAAABanXnliaa5yVN3m8OfPT/eFsyc3zT/72eO3zg3dWbNwrc1N31m9cyJQ2vNv1evv2a2eu2V7y/21msamkcL/1697urB+X+pXfvj+lsf3seHBQAAtxCQAgAAALDexEsP9cxNn7l5bvL0DTPjR1rCQWe5Zk8frZ49fXTjYv/z6XdebQv9x4v/fvZfskF1/ebp6nWNp6vXX3Okqm7DkerVDSNVdRueXbd11xifJAAA9CEgBQAAAGAVE4aaatDZU7/aOns231BpEBq12YljtbMTxzYG77zaGgSB+dMRBMGesz/92lxNQ/O4qT41VaeEpgAA6EBACgAAACBV84HomeMdpjJ0+p1XF63o1GBu8lSVOX6pPjV/9pw/9NzZ6g3XHq1Zv3m4et2H/5LAFAAA+xCQAgAAAEjUxL7ee2bP5j8/896b7ZoD0WKY6teZE4e2TAXBliAI7jOBac3GG96s2fCRgfrbHuuz/x0AAOA+AlIAAAAAsTOh6Mz44V3Tx396s2lR9/WMS2A635p/7md/99e1mU/+suaKpr9f3/7kgxYcHgAAXiIgBQAAABALQtHlmZb8qbeGTXXprvM//+YDhKUAAKSDmxQAAAAAkTnzyhNNM6d+3Td9fP9nbdtcyWYLw9JV/+rW0ZpNv/0f6m99eJ/v5wYAgLgRkAIAAAComNloafrkoW4T8nE2K2PC0snDz7cGh5//56lfjZysverm/7H+M3u+pPk9AQBgMwJSAAAAAGUx1aKzZ97+i8mx4U5a6OMhu+Lfd/7gt75Yd137S9VXND1MVSkAANHiJgYAAABASebb6E8eGph8a/g2U+3I2YufOc/nDz7XFgTBP0/nXztU23hzF0EpAADRICAFAAAAUJSJlx/dNnPiF1+Z+s3LLQSj6ZmfVfrW8D/PvPvGr2oamv+6/rbH+nw9FwAARIGAFAAAAMCyTMXo1PED32W+qF0mx757bRAEe6aO/Wj3qn/1e1+u39b7jO/nBACAchCQAgAAAFgUrfQ6yJzSb0y/97PHaL0HAKB0BKQAAAAALnPqhe5nJw8/v51gVI+LrfcnfnGg9sqbOtZt3TXm+zkBAKAYBKQAAAAALpp46aGe84f+139lV3q9Jg8/3zr1m5cPz5z69dCGO7J3+34+AABYCTc9AAAAAOY3YJrO/e+/nzr6wwxnQ7/5Xe/f/IeO6eP7z9Rd2/6f2cgJAIClEZACAAAAnjv1nT8bZs6om2ZOHFp79sShPdMnD3Wvurr192m7BwDgcgSkAAAAgKcm9vXeMzn2wl4TovEZcJuZTzqd+8nh2XMnnlzf/uSDvp8PAADCCEgBAAAAD5mq0fMHn2vjZ+8PUyF87rWBXTPv/axr1TWf3ko1KQAAFxCQAgAAAB6hahRmzux0/nWqSQEAEASkAAAAgCdOvdD97OTh57czaxSFatLZidznaq+8qcOHatJ8NrMxCILWBf/n9iX+6yeDIDiw4P92oLE7dzKmwwPKls9mCp/jxT7jxRou/Pcau3PD/DTgGwJSAOrks5nmIAi6FB76MDcbAIA0nHnliaapoz94hR3qsdDk4edbZ04efGNu+tyO+m29z2g+QaEAtFWCokJoFNkoiXx2/ldoXMLTQoh6xPzhPg9xymczhc92s3y2zWe8JcKX3F34F/mcG2OFz7f8MZ/xk43duYUPDwD1CEgBaNQc/gJXhhtnAECiTEv9+V8M/ffZiWPc+2NRZtzCuYnjT89Njt+x/jN7vqThLEkY2i6BUeGfDQm9fEModN0eOqZAAqUD8meYqlOUI/T5Lny205oX3SR/Cq8/vwaTz/pI+LPe2J07wg8bmtVKKfZSbQU2M180g3z6PiAX0R5bjqcUjd25Xj1Hm4x8NtMjTwW16efL0Q75bKZLwmQsrTmfzdh8/aHqWIEFLZuVtLgVqjOCUGXSEa6pqMTp7+386vmD3/oiLfVYyXzL/etP3zd79r1PXnHnwC22nbAFgVF7xJVzUSoESttDYdKohKXDrGGxFKkQ7bL88x3WFg5u89nMWOFzTmAKjWrl5ltjJZb55ePL5VIdWqvq8tkMoVqI3ADuseaAijdO2G2VrhSfNmvRpOC6SUBqEXmwHG5xi/J3bNG/S6o0RiU8LVRqHOB7EysZ/5+fPzj11vAWThRKYVruT3z9986s3nLXTWnPJZWxSh1yT6MhMFpKi/y5X67pQ/L9Psi13G9yX9Eln/OkKqDjYu6rO+VP4cHAoHzOacmH9WrNB1WS/iZlP64m84XJF8olOiw6llKZY+/Tdcix0vqz5KEFAGfIwjzcvpnm4rywuA63co6FWjiHWXygwMwbnRz77oHpd17V2IkCC8y33L/xzMG56XP/Pum5pHLt7ZH7YW1r1GJtlz97JETqJyz1R2g/hS6HP+NB6N5lt9yz9Ln6Oc9nM3MWHIbtzOfA5sKU2wtziEyocX/KB1MOQjUhFYfbi/ov26mLn+UltAakVLoBUE0qOTqUtLeF2zjNsY/LPV2hKomZdx4y80Ynx17YawIu388FKmNm1p57/etPz02fbV3f/uSDcZ5OWct0SDCquVK0HC3SOWbC0pFQWMo13DFyj9GjfN1erqbQ53xIxrJRXAOrFALSYaUBKaHaBzRXjxotVARfoDzs5ksOgDr5bKZDvke1t7c1hFrb9lKV5B8Tjs4HWswbRUTm55K+NrArmJ28Ko7Nm2TmYk+hJRcXZzr25bMZc1/dy/VbP9kXoNfxatFSzFdQh6pK+3kgABtUBxc2yDEX33GFP5EWKU+Hzo22FtIe8kZF63kY4osNgBamisPMv85nM+a69awszrXP/lqoUJV0OJ/NDJsFmjyEg4NODz/wOOEo4mI2bzr1nT+LrFNIrkfm79tPOLqowgOvwvXbhbWed+RzbgLuvYSjiypUlR4xm6Zyj4K0VYdeX2vlF6HaBS6cB774L9B6HqgeBWA1c+Odz2Z6ZLHyoqOh6FLaZIF2RILhUnfYh8XMTvWmyo9wFHE6f/C5NrPxVyUvsSAwYiPJ4pjz9KI5b1KJCMvJQ9gDBKNFa5BNUwlKkSoXAlLvQzVpDXRhgbedi+E8NmgCgAiZbhMTCgZBcEIqFXxerBSqkvYXqkotOCZUYD4cff3p+ziHSMLUW8NbyglJqaSLRJOMTyEotZTcbwzKQ1jfZulGoRCUHuAzjjRcDEgVD8glVHOritbrimDFYfcI7fUAbCMVHKaF8zAtnItqCy+2uZ/Sh3AUaSglJCUYjUU4KPW+WMgWpvLRBHuebsAUtcJnfJiRikhS9YLXGlJ69n1vsycgdQfVowBQoVAw+iItnEVpCrXf09qmBOEo0rRSSEqLcSKapPV+mLEp6THnXj7ruz0a25OUNpnD2+vH20XaFgakzCFVRp4aunQh9v2JGwEpAJSJYLRi4RlgtLZZjHAUNlgsJKXFOBVtMjalnwdcyTJzzYMgGOazHrvdJoSmmhRxcyUg9TlUcy4cljZz7ygOu0cbu3NHLDgOAJ4KzRglGI1GQ6h90/fODusQjsIm4ZCUFuPUdfKAKxmy6WO/zDWnajQZLcwmRdwuCUhlhqDKNnuPb+BdfN/8LHXpV3rcANzQwYzR2Jj2zWeZAWYPwlHYyISk7+39xE9pMbZCA7Mb4yXndZj7jlQUPt99Hr53JGBhBWlAm70eMmvGxZk+BKS6DCs9bgBuoK0tfhdngNG+mZ7Tww88TjgK21TXb55e+4n7ds5OHL/NdBXxA7JGm1Tb9fh+IqIk6+8D3Huk7n55CMA9CSK1WECqNezwMVRztby8wbeKYMVh91hjd+6ABccBAIjfbllws2tywib29d5z/ufffMCrNw3r1V3/2QNrbrrnhvrbHuuTTkSzNhnnJ2cNU223hyApGtLavZ8qaWuYhwBUSiNSlwWkMktQ49M/70K1IAhcXqD49rPUGnazORMA+KWwa3IfC+5kTLz86LZzr3/96bnJU1U+vF/Yr6puw9yamzufuOLOgVvWbd01VjhgeWjeTkhqnTaZTcrDrTJJOLpX5cG7rTCXtNX3E4FoLFZBGiieKehNqCZPSlwu7fftC1zr+2X+KAD46X4WJfE788oTTZOH//GfCEdhi5pNW86uubnztvXtTz642CFJSEpbt30a5OFWr+8nolSEo9ZrkEpS7kdQsaUCUq1VYT6Faq6HwU2+XOQUh9201wOA30w16X4W3PGZOvqDV2ZOHFrr6vuDLquuaz+06d7vr6u/9eF9yx14Y3fOPEB/hB+vlXbTcl88wlE1CEkRiUUDUsVt9t6Eag7PHw3z4T0GbM4EAFCOBXcM3v925/6poz/MOPfGoNKaj33haw1/+I0bij32xu6ceXAywE/bSm10AKyMcFQdQlJUbKkK0kBx+OF8qOZBe32BLyMTmD8KANCOBXeETn9v51cnDz/PuUTqzLzRta1f/vz6z+z5UhnH0sPO9tZqkjDJx42OVyTfZX2WHyYuZ0LSfh7YolzLBaTMIbWXL6MEnK8IVhx2jzd25whIAQBhhZZ7XzpAYjG/Y/3Bb33RwbcGZebnjX7s3i/Ub+t9ppwjl53tO9i0yVomTHqWa/alZH02zG71arVI+E9IipItGZDKbMExhafUhzZ7n570uR4Ga31/hKMAgKXsNbvcc3ZKN78p09gLe9mUCWkz4ejqLXfdVG44WiCj2wjg7MY1W0ioNkg4ql4LFcAox3IVpAGbNdlHLtrbXX1/i3D9hkpr2E1ACgBYzv35bIY2txJNHT/wXTZlQtpWXfOpnAlH123dFUmxjHQdPcUP1mrz12zfT4KEaj6MsvNBZz6b6fH9JKA0rgakLodqvs2JaZE2B+doDrtprwcAFKGTNrfinR5+4PGpt4a3aDleuMnsVN/wR0ObowpHCxq7c8wjtV+nzyGpzGPttOBQEJ09zEZHKZYNSBu7c8NKZ8Y4G6p5GJAGDr9nre9ryIJjAADowCywIky8/Oi28z//5gPWHyicNh+OlrBTfRm6mEdqPS9DUskOqKB1E90sKNpKFaSB4ipSV0M1n9rrCwhI7UL1KACgFISkK5j61chzzB1FmhIIRwt7XPTyg7aejyFpP3NHndXCdQfFIiBVRMr+fdTm6KJKa9hNQAoAKBUh6RJOvdD97PQ7r3JekJokwtGCxu6cmfE4wk/bet6EpLLGbrPgUBAfM2PX9c2fEYEVA1KZNaixFcLFUM3XgDRw7b0rDruHGrtzJy04DgCAPoSkC5jW+snDz/vYHQRLmN3qkwpHQ2i118H5kFS+j2it9wO72mNFxVSQBlSRWoOA1B1a38+wBccAANCLkDSE1nqkyYSjZrf6pA+hsTt3hJZXNUxI6vIGyD201nvD7FPDdQfLKjYg1RqKOBOqScWhzxfv7Y4tppg/CgDwFSGp2bX+ezu/Sms90lJdv3nahKNR71ZfLFrtVdnrYkgqGzP1WHAoSE6P7/ceWJ7rFaQuhWrMzHAk8FYcdo/KE38AACrldUh65pUnms4f/NYXLTgUeKiqbsPc6t/e/u/TCkdDCKf06MtnM62Ovadeqke900D1OpZTVEAqMweHlJ5JV6pIfW6vL3AlJNb6PpjPAwCIUouvM8Gmjh/4Lq31SMvq3/mjJ+u39T6T9g9AdrV/JO3jQFEaXHqoJdWjnRYcCpJ3v/z8gcsUW0EaKK4iVR+qydO6JgsOJW2E3emivR4AEDUz386rkHTipYd6pt4a3mLBocBDq2/848H17U8+aNE7N7//aVeyojgNDu1H4PJcVayMKlIsyoeA1IVQjQv4BQ2Kd3+fpzjspr0eABCX+x3fBOQSU8d+tNuiw4FHVl3zqdyGO7J32/SOpVORsEKPFu0720sVLOMd/NZJFSkWU3RAKl9eowrPovpQjfb6S2g/F1oXgOxeDwCI014H59tdho2ZkBazKdOqaz691cYfQGN3rp8Nm1TRvrO975sf4wKK0HCZ2hJPifny2qPwNHZorYCVJxu013+AsDsdzB8FAMRt0ISk8lDeSZNjw8y8Qyos2ZRpOaaK9MUEXmc8CAIz+/Sk/LNgYTGAeZARfmhTGNvWlsAxamA2bTogc2S18b161FwHjsjn2+eg2Oxo3+fyPQdKV2pAOqg4INWK6tFLNcjiSd2XseKwe0zpzQ8AQJcmudd0ZVPGS5x6ofvZ2Yljpd57AxUzc0dt2JRpOY3dObMB0EjEAeS4BJ8HCv8sMQxZtMBGWrRb5VpV+KdvQVODFFCoqvyX9ViLBYcSt7HQZ//ASp996eBolp9nhyfnqEHeK4VAuKikmzQzgzCfzYwq/IVRG6pR+r2oLqVP/ticCQCA5bXls5nexu6cUzMJz7zyRNPk4ee3W3Ao8EztVR8/advc0WWYe/zDFf4dI3LvOhzX2k+CpuFw1akETO3yHnwIlwKZR6rteu1y8dGYhH39pe4dIb8rB+R3p1ceAnTI59nlqukeAlKElbJJU4HWsERd0OjRE65Saf1i0xp2E5ACAJK027V5pDMnDw3MTZ6qsuBQ4JGqug1zq65tu0vLO5ZQZ6CM/6kp4NkRBMGmxu5ce2N3ri/pwhjzevK65tp1fRAEO5Xu31EqbddrF4uPTDC6o7E712zC6ig21jUPAcxsYPP7JJ/ncn4vNWhhsyaE+RSQagzVaK9fXJO2hZPisHvctDxZcBwAAL8MSgWLevPVo28N38bnF0mru/6zQ/W3PrxP2YkvthrRtM8/ZcIbE0pKmGPFLEETUIXC0lskXBq34NDioqICz8HiI/OZ2inBaGw/A/k8dzkclPo+kxYhJQek8jTO5gHfS1EXqhGQLkvbuaG9HgCA4jWVEJRYjepRpEFZa/1FRVSRmnXoI2ZeYmN3rieKark4SWVpl8x3fMTRoHS+1d6C41iJS/OtTXWyeTDQl9QLhoLS25XmQUshc8FF5VSQBlSRxk+qJtglcWkEpMkgIAUApOX+fDajfkFL9SiSpq21fhGLhW0mWHwk1EasaudpaVnudTgo3a2gVdmVgNSEo+1pPRyQ7sJWh6pJNRbSISbl7qRpSrjvV/hD6VBUjcCTjOXNzwux/alxoDvsNu31BKS69Yc3EEjAboVna8zy1jBGXMB3/bLRpqowpOD093Z+lepRJK3uuvaXFLbWXyQbA4d3tDeBYp/W60CYvAezCU6frEs1rqmX0m95COlCQFoIR1P9XZDX78pnM+Y+dW+axxKRDtmkCp4rKyA1rQL5bGZM2p80UROqEZAWxZyjxNoKKjxOjQhmlItzHtFi8tmMxoD0iGu7ZcMq46Eb7pOL3HybioXCnM1mhfdVSWiS+WAqf08nx4Y7LTgMeKS6fvP0hs/9rfogqPqKa/+/2dO5NcHs1OeVrN1KIgFTTz6b6Zf1jAudg235bKbDxgILKVjR/h07ZkM4GmbWGvls5qSE4w22HFcZoiikG0nweDcqnadrPsM2X89PlltBGkh4ovGmz/pQTS7g2y04FNt1EZDGiupRACjeiASg83/K3UFZ2ryaJTxtl39qXnREwbRuDia9K3WlTg8/8PjsxLFK7rWBktVd/wd/pf2szVdenzv5xbqmz4xeceeAc+FomFzX2vPZTOFBkPbrfZ+lawgXWqg7bKyiNoG4jMMZVvz5NYV0Gys5v7LjfyLkfL+Y1OtFqN/2wpRKbtoGlQakGkI1lwZIx8n6imDlYTcBKQAsbUyuk8NRVsvIYvlA+BosoWmH/HFpB95S9Gm7P5p++1++bMFhwCNmY6b17U8+qPUdn3nliaapoz94ZeroDzPmP0/95uUW839bt3WXSxvCLMpstiPtyv3Kr/NmnmOvhSGI9vX1UzY/JJQO4x7l7fbtrH9R7iZNgSwGNA6XblEwQJr2+uLZ/mWn9ct4yIU5TwAQsXHZlOB22SikJ4lWQtkF2Sw4TVB6vVkoObaDbDHmWzftP8wLJl5+dNv0O69uLOa/C0Rl1eZ/84jWkzmxr/eec288c7AQjhpmfu/smbf/It0jS45c61vlGq9ZjxSJ2MT29f9KrB8zI6O9dlpwKOWiSA3lB6RCa8Ju+4efgLR4tp8r2usBQL8xuek3oWiX7OCaCtM1IcGsWeztSHjmVdo0jNWZN3PiF1+x4DDgkVXXfCpXf9tjan5HwkxL/bnXv/70YiMppo796N+lenApMNd4ub5r3em+QWZH20RzQDqgpXDFVEKbQhsLDqUcBKTwNiC1NrSS6gjfZ42VYruFTyjDCEgBQC8TjO6QalHrdlA21Roy8+p2T4LS+dZNC45jRaY12PJDhGNqM//6TzS+o/e/3bn/3OtP32eqRRf7/8+cOLTWVJcmf2Tpkmq8dsUhqW1VpJor+rWty7q0dhpbcAxIWaUBqdZdrm0O1ageLZ2V50xx2D1Kez0Az5kbe9Oq2iqLVKuZilYJSnd40HpvY+vmJeY3mFki7AHisOq69kP1tz68T9vJHf+fnz84efj5FTfPmX7vZ48lc0R2KWzgZO7NFR6+bVWkWsOv8SRG+URJ1pEqHmYuJJsfwWMVBaTy4ddaQm1rEElAWjp+ltGyPgwAgBiNSDDaq+1hkYS5LsyvW46NrZuXmDn5yzstOhx4oPZDH31I27s04ejUW8NbivnvTud+8lvxH5GdlIek1j/QUsDajZmWI632Gh/YrvjABm6rtII0oM0+OrJLLe31pbP1SY/WJ1C01wPwkaka3WkqMc2cT63v34S6Mr/udoerSa1ddF/YhfuDTWaAuJmd6+u39T6j6USXEo4GslnT6eEHHo/3qOwlD+s0hqTWP9BSQGvHbqC0ilT7Zl6okM8BqY3hVZcFx6BRg20720rY3WTBoZRqVHMwAABlMovOdql4cIJsJNWquNNnOdYuumdOHPQ2xEE6tO1cX2o4WjDz3s+8XicpDklZ3/pLY05EBannKg5I5WKtcWMA60I12usrYtu503ozQPUoAN+MSDiqso1tOVJN2iHzVF1jZUA6/d4b3MshMdX1m6c17VxfbjhqmMpsU6Ed/VHpEQpJNW2AYzbXIyT1kNJxjFSQeq42ordvQpU2haeyw5ZASHHFoS0Iu6NBQArAJwON3TnnF25mnmo+mzHdAXstOJyomAfdXTZtojXx8qPbzI7bFhwKPFHX1D6g5Z2eeqH72XLD0YLZM2//RRAEX4r0wJQxoZNsJDOsaDRbD3sc+Eke0gJqRNFiHzCHNBJcPCrTYMuuc4rD7jEXK6gAYAlehKMFEiTusONoImPVfLPZidx/tOAw4Imqug1z1es+/Jca3q2ZH3r+zX+oeK3DBmgXyP26pu+vFlkfoXRscgUkKJKAVGYWatxZz5pQjYA0EracQ6pHAcBuXoWjBQ6GpE0W3ccFs6d+tdWCw4AnajOf/OW6rbus34htYl/vPed//s0Hovi7pvOvfziKv8cFjd25QWXjU9isqTxaN/0FVIqqgjRQXDafepiVz2bMrIuWtI/DAQSklaH1BYAPvAxHCxwMSa1YdLN7PZJW+6GPPqThpE+OvbDX7EIfxd/l+272C5nxKYr2AqEYqDwtkhUASECUASlt9rqPwQVNabdvKA67x2mvB+CBIZ/D0QIJSXfacTQV227D4nH23Ikvp30M8Mf85kzbep+x/Q2//+3O/VHP5Z2dyH0uyr/PAR1KNm1qYLOmsqnZiA3QLrKAVNrsrW/zWETqoZriHc9tlPa5pL0eAOw0yvftBxq7c2bBpWaDlxWk/t078/7Yn6R9DPDHqo/83rdsf7MTLz3UM3n4+cjXWNPHf3pz1H+nZrJTuJbvtjSv1RrHARZsJ1wGkhFlBWmgOGRJ7YKTz2Y20l4fqbQXSVq/vAhIAbjMVNd0yUISQqppNS8aC1Jvs595902NmzNCqer6zH+z+cjNyInzh/7Xf43j756dOFY78fKj2+L4u7WSeaRDCg5/u6x906D9+7+Pja6A+EUdkDKHVNdru6gprVY7xWH3uNxYAYCrehgjsiQt7ZnLSbUbyIQ1JrRJ6/Xhl5pNW87W3/rwPpvf9MzJQwNx/k7MnXuXarrLdSm5lqe19tUekDYEQTCcz2bIDoAYRRqQyuJDa5t9WvOruMhFL61zSns9ANhnSGZuYhEyIqnXgXOTWmBCWIMk1V59y/M2n3DzwOD8wefa4nyNmdPH2Nl7AemQ0HAtT2u95MJDUhOSPpvPZlz4zgasFHUFacBmTcWTisPtSb+uB9JaqBCQAoBdxpk7ujKZR6plJ+SlpPYdTFiDJFWvbfyGzSd8Ove//z7u12CkxeLkWm57sVJa10uXukh257OZA/lshu8eIGJxBKTDSn9IaSygqB6NR0vSFcHKw26tv7MAsJJe5o4WTXuQnFqbPWENkmL77vVmY6apoz/MxP06zCFdVuozmVfQkFKwdySF14yTGev2Yj6b6U+xExZwTuQBqcwy1DjLKvv3PE0AACAASURBVPFQjYA0VkmfW60/yyHCAwCOGpVqGhRBWu0fUX6uEg95zWY0zB9FUmquvNHq6sCpYz/andRrzU2eujOp19JE1uK2dwQkvm5yeA55ZxAEhyUopaIUqFAcFaQBbfZF4yIWn6TPrdafJe31AFxlexWNjfqUb9iU+Hfx3OSpu5N+Tfir5oqm2NvXy2WqR6ffeTWxHcpnJ3KfS+q1FLL94WBa6ybto2SW0ykVpab1vku6GwGUiID0UoldrGUHuoakXs9D2xP+YmD+KADYY6SxO8f4kBJJR4HmqtvEu4FmzxynGwiJqV6z6W9sPdvT+dceSPL1Zk8fpa14CVJFanO1cUtKAZ4P9wWm9X6vGSkgVaV8RwEliCUgVdxmn2SoxsUqfomcY8Vh9wjt9QAcxQ6v5aOKtASzZ47fmOTrwV81m7acXbd1l5Whl5kHmsTs0bAkq1WVsv17MI0qUp8KQxqkqtTsen+SsBQoTlwVpIHiJzRJXTi4QMWPn+XyqB4F4KJRqkfL50AVaaKL7pnxtxqTfD34q2bjDW/a+uZnTvziK2m8Lhs1Lcv2gqXEN9WTOaSaHwCWKxyWzuWzmUFpw6cKG1ggzoCUOaRLkAHKtNfHL6mKYAJSALAHGzNVrl/xsSdbQcoGTUhI9doP/cTWcz31m5db0nhdNmpamjzssvleP605pKx/gmC7tOEflpmlfWzwBFxAQHq57Qm8BtWjyYn1Yq847B6VHYsBwCXjjd05zeGeFeT7YUjp4TclVRVjNqVJ4nUAo6qu4QUbT8Tp4Qcen5s8VZXGa8+de+/TabyuIjY/MGxL6XW5R7iUebhxv2zwdJLqUvgutoBUnlqpvLlOYD4HAWly+FkujpsDAC7i2hYdqkhXMDd95uYkXgcw6rf1PmPjiZh5f+xP0nptZgAvT1rKrd2sKZ/NpNFmP2z5BlZpalhQXXpEqks72BUfvoizgjSgzf5y8kXQFNffHyOtXyQEpItjPh8AFxGQRkTxhptBUrPt5iZP35DE6wC1V33c2k01p3M/+a20Xntu6syatF5bEZvX42lVKTKKpzhNUl36bBAEJ/LZzHA+m+lJI9gGkhJ3QMpGTZfrivHvjpP5ch1VeNwNcVUEaw675YkyALiEa1v0tD7oTmTxRvUaklK9/horxyKl2V4fsJN9sWx+cJhW0Nbv6WZNlTJjEfYEQbA/tDN+F9WlcEmsAanMsCJUu5TWAcj9iitz4vpZag67AcA1XNuip/WcJjLbjuo1JKWqboOVAensRO5zFhwGlmH5zu2pBKQyCpCOk8oUdsbfu6C6lNmlUC3uCtKAUO0DcsFIZZfHChWqcrQulOIKpTWH3QDgGkaHREza7FVKogVwZvyIxk0aoVD16oYRG4965uTB1Kuo2SytKLZ+P6YZpvVSRRqpQnVpeHYprfhQJ4mAlFDtA1rnVc7/DBVXBDdFfYF2IOwGAKdoDvMsZ2UwU4TYF95pthbDM7Vrf2zbGz7zyhNNMycOrbXgULAyWwPS1NZSUkXKLNJ4FGaX7icshTaxB6SEapfQ2pI9vMS/axL1uVcddgOAY7SGeBpo/d6PdTE28fKj2+L8+4Gw+lsf3mfbCZmbPHW3BYcRzJ4fT2SkhnLWXsdTnl/ZRxVp7BYLS2nDh7WSqCANFN9cRxaqKa44HF9QlcPIhAtcCLsBwBVc2+Kj9dzGuwCbPvu7sf79gKiu3zxt47mYPXPcjmKBmfObLDgKq1nePZZaZaFUkWpd02lUCEtNG/4BNniCjZIKSAnVHKk4lC/YsfQOp2yRVQQ7FHYDgCsYHRKTxu4cASmQoup1jadtPP+zZ46nPn8UJaHTYhGyNhqy7sDc1yIbPB2R3fBpwYcVEglICdXmad3QZ7FAzfe5srTXA4BdCEjjpfEeLtaAlLZe+G72bN6KTcpmxo9oLFpIwxFLj8uGNXIXrfapKeyGv79QVerpeYAlkqogDXwO1aR0fHs0h5OsJSoOtVYER3XBdSnsBgD1ZN454qMxgG6K9W+nrRcJqWlotnIvBzZoUofvySVIq73WAhiXzFeVyqzSXtrvkYYkA1KfQzWtF9xF2w2kIljjU7aWSodCOxh2A4B2tA3GT2WFLosrIB5mB3tOrToEpMuQcTKPWHuAfjHXl93Sfk9QikQlFpD6HKo52pKtNWyr9GfhVNgNAA44yQ8xdloX1sw0A2Jgyw72KImt13FrrtON3bneIAgGLDgUXNBAUIqkJVlBGngcqqmsOHQ0IK20Ipj5owBgF+aPxo/KIwBWmhk/YsUsVJTNqtCrsTtn1opWjrXwWDgoZUYpYkVAWpyyQ7F8NqO24lDmsSxK2rW1VgRX8kXsYtgNAABKwMYwSEr1uqutu4ebm53+sAWHMW9u8lSVBYdhPWkhR3HaCUmt1CAzSs1mTlr3BIHlEg1IFYdqbRWEaloD0mK+RL0KvF0NuwEAWI7ihTUt9kAM5s6992nOK1wl6yZCUnuZB5Qv5rOZPtruEbWkK0gDD6tIXW7J1rpg8u1nyRNjAICPWDgBAEoWCknZCNJe90vbvdY1OiyURkDqTagmv6wa5+KMNnbnipk3pjXs3l7m0ybmjwIAAACA40xI2tida2fjJquZrOVZqkkRFSpIi1dOqKZ1NkZ/Mf8lebKmdXf0ksJOD8JuAAAAAECIbNy0k3NiNVNNOpzPZhitg4okHpD6FKp5UnGoNfAuNbx2OuwGAAAAAFyusTvXFwTB7Ur3U/FFi4SktNyjbGlUkAY+hGry9KIp3sOJRakVh77MlKW9HgAAAAA8JBsWNjOX1GqFlvte308EykNAWppSQrIuGw64DCXNiJWKYI07/DUU+3TJo7AbAAAUoWrVunOcJ/iqas2HfsAPHz4KzSXdSTWp1Xbnsxk6KVGyVAJSH0I1xRWH5VxItF58iv0ZeRF2AwCA4lSvu/pNThWSMHvmuHVriqrq2rctOIx5VXUb5iw4DOvlsxmt48KsJC33rVSTWq2TkBSlSquCNHA5VFNccTjW2J07UMb/zvWKYJ/CbgAAAECFmoZmqvh0U9vtZjr1pJr0brOOtuCQcDlCUpQkzYDU5VBN6xO6sn4m0sattSJ42Z3uPAy7AQAAgCVV1W14lrOjTrOlB6x+HFhjd25Qqkkfoe3eSoSkKFpqAanLoZriluxKQmutF52VflZehd0AADjkJD9MaDc3M9lg21tYt3UX1XL62BqQOkFmk/bKeR7w/XxYiJAURUmzgjRwMVTLZzPmotiS7OFEYlx25iuX1nmXK1UE+xh2AwBwUREPhm0VWydFVd36g3xCkITZ00etDLZqr/o4DyB0sfU67tTnSIJSs368nqDUOiYk1bq2R0LSDkhdDNW0zqusKFCTdm6NT5Obllr4eRx2AwAQtpGzcamq2nWv2XQ8QNKqVq07Z8NJr2lo1tiRmAZbK0idHAkm80lNGLeJ1nur7GXDMiwn1YDUxVDN14A0wr8jDUs9SfL5ZwkAWmitbtSE1kwgJTPjR6xrsTeq1139pgWHgeJpLPpQb0Hr/Q42c7LCYD6b4cEvFpV2BWmgOMy5LFSTX7S2dA6nIuMyXLpSWkcmLPUUiYAUAOzHTW78tAak8VUm1a79cWx/NxAyN3mqysbzUb3uajvuN2tWn7DgKKxmecWcF5vKSlDa39idM9+nt9N+n6oGxbkFYmZDQOpSqOZ1oKa4IrhF2ukvIuwGADU0Xqu1UVmlaxakcf3d9bc+vC+uvxtYaGJf7z22nZT62x7rs+AwgurVDSMWHIbtrL2Gx3mdtpUZhRZqv9+hdONq7bYzjxSLST0gdSlUUxyQRjmv0pW5svwsAUCJRb6PES2N5zf2e8uqug1zcb8GMG92arONJ6Jm05azFhwGVmZrBanX4XaoqrRVNnXaSQt+ovpotcdCNlSQBi6EavLLtT3dwylblBWHroxMoL0eAPRgDmm8NM6uOxL3C9Q0NLPpBhIxe+a4lfelNRtvSH0OqS2VrJazNSD1rnp0KbKpU5+04N8SBMFTVJbGzrTac/3AJWwJSF0I1bTuhjYUZWuDtHdrXDBcrAgm7AYAdQhIY6J4t9fYA1JbdvGG+2YnT33ExjdZs+Ejqc5RpIp7ZXINt3KjL1/mj5bKdNg2dud6FlSWEpbGo5MuJIRZEZC6EKpRcRj735mEwiKQsBsAdNF63daAgHQJ7OKNpMydffdKG0+2qd5MM6SkirsoNq9RCUhXEKosbQ3NLB1Qmp3Yig2bcJEtFaSB4sq3wsKBgDTevzMJhZ8hP0sA0IWNmuKjNSCNfeFdVbf+YNyvARjT77xq7Zy82swnf5nWa1etvfLdtF5bEQJSR4RmlnY1duc2Siv+I1SXVqwtn83QiYR5BKSV68hnMx0Wty4sZzSmikOtM2W3S3s9ASkAKKO4Fdx2WsPn+Fvsa9e9FvdrAAU27mRv1G7ckk3rtavrNvw6rdfWQL4Xmyw91HFTHWnBcaglrfi9oerSu6W6lI2eStej7YARD5sCUrWh2iIb/GgRSzm5hK5Dis8JYTcA6KP14Za15AGwSmbhGPdxszkMkjQ3OX6HjSfc/B5U12+eTuO1q9ddTXHA8mxeo1I9GiGpLh2U6tJmmV26Q9bktOOvjFmkmGdNQKo8VGNDn2T/7jhp/VkyOwWA7whIo6f1nI4k9UJpBUPwz8zpY9ZWya/a/LvfT+WFa9f+OJXXVUBBV5zW4igVZHapacfvCLXj70zy+1EhrUVviJBNFaQBLcKJGo25rYGfZbI43wB818QMqchpDUgTq0yqabgun9RrwW8z775pa6t0UH1F08NJv6bZHKr+1of3Jf26inRZ3hVHQJogacc3mz21N3bnqqQd/yna8S9BQAoCUo/Feq6VVwRrE3fYDQBacHMbEcXz1YMkA1J2skdSZieO1U68/Og2G0+4CSpXXdd+KMnXZAf7Fdk+U5EW+xRJO35PqB1/J2t3HrTDsoCUUC1RSYTRPBlMBg8WAOACAtLoaB5ZkNj9BzMQkaS5c+9ae42rbbw50WOraWhm5+4l5LOZLos3ZwrYO8Eu0o5vqks7Fmz25ONDCO4jPWdbBWlAqJaIsSQ2LyC4SwznGQAuaJCFISogGxV0Kj2Hie6MXFW34dmkXguweQ5p0lWkVWs+9IOkXkuhXssPmbWLpRZs9rQxFJb6gnn2nrMxIOWCGb9EzrEsUHi6G6+kwm4A0IKAtHKaz2GiD9rXbd01VrNpy9kkXxP+snkOaZBwFensRO7ppF5LEwXVowEFUXoUwlKpLN3hwdq+id3s/WZdQEqologkdzxnd/V48UABAC7Vls9mrK2ysp3sfGz77LrlJP69WL3uw8wBRyLm55Du673H1rOdVBVpdf3m6SvuHPhp3K+jjVy/ba8eNVX+BKTKSGWp2RXfzOi83fHd8LmH9JiNFaQBoVqskq44JMCLF78rAHA52xeINutRvDlTkEZlUk1D08tJvyb8NTN+eJfNb95UkZod5uN8jZorb2Tn7cX1KKgeZW2onAm4zW74QRDc4mhQSkDqMVsDUi6c8Ul04SAVwdzExGOc9noAWBRVpGVwoHp0LMn5owVVa67kYSUSM3Py4I02n21TRVp3XftLcb5GzfrNVCAuIG3BGq7frPMdYdahEpTe7th6n53sPWZlQEqoFqs0vpT4IowH5xWoHHOG3EUVaem0V4+m8r1oAiHmkCIpMycOrZ14+dFtNp/wDZ/72/Y4fyd4KLGofgXXb1PcwfrFMTIyodWhzZxaLDgGpMTWCtKA8CcWaX0pcRMTD35HgMrZ3oqG8rWxo33xpPpot5bjXUJq9xs1G294M63Xhn9mTvziK7a/6bqmO3bE8fea4NU8lIjj79Yqn82Yh1ttCg6ftYujZEZpl2zkpB5dSP6yOSAlVIteKl9K0gZORXC0eAILACvrk7ZxrEz7fVfSM9YvUV2f+U5arw3/TB//6c22v+n6bb3PrL7hrsjnE/Iw4lLycEtLxwRrF8eZjZwcCUm5d4yH9cGztQEpoVos0vxS4gsxWpxPICL5bIZZQ+5q4IHryhRVHy0n1e/F9e1PPpjm68Mv87vZv/SQ9fMmTat97VUfPxnl31mz4SOutPFGZVDJaBSKOzwhIelTyt8tawNP2VxBGhACRS7NgeYMU48WvxtAdJhD6rbt+Wymw/eTsBRl1UfLST0IX3XNp3JpHwP8MX3yULeGN1vX9PutUe1qb/6e+tse64vi73JBPpvpVzQvkYeVHmnszvVQ7IZFWF+Za3tASqgWnSEzGyStF5cnhuNpvb6D+N0AosNTYvf1SxCIy2mpPlpOqu31BTUbf+vbaR8D/DH11vCWM688Yf0c7XVbd42t+di9X4ji76rNfPKXUfw9LpAZ252K3grBtn80P3xlBmk8rH+gY3VASqgWKRsqDql6jEaqYTewDK3Xa26C3GcCwEHmkV5KWfXRcqyoTKpe9+G/tOAw4JGZU79WETqZeaRrPvaFr1X699Rc0fT30RyRbjIaaK+iNzHS2J07YsFxIFms/XEZ20eb1VpwDCsZVPZ0zFa2BKT8LCvHlw1sdUDpHEPtsxdRnBapYGFne53VR8uxIiA1lXJTR3+Qmzr6w4wFhwMPTP36+/9Wy7tc/5k9X5qbPH3D+YPPlfWda9rrmfV7MVzQ1kmWaJAvHSOHk3zNCOxs7M45VWVrCnry2cwI99lYoFXWjFayvcU+IAyKxIgNFYdUBEeG3wkgYsyo9EanVE16TcJRTdVHyxmyqTKJNnskyWzWdHr4gce1nHSzadOq69oPlfO/pb3+knBU01iUsaQ3Z1JarerquCetlcO2j2WyNmAsgtWde9YHpIRqkbApUGN2ZmWsCLuBJWj+bBKQ+sPrkDSfzbQ7FI4Gtm38QZs9kjb99r98WdNJb/jDb9xQTkjqe3u90nA0SHEOpbb8wNVxT1oDUqvnOyvPA6xec2moIA0I1SpmU0BK9WNlOH+wmeanmZ3Mp/SKlyGpVI669D2SeGXSSkybfbkVckA5pt95dePESw/1aDp5pYak1fWbp31ur1ccjo6n+J2j7Z60ydHNJNkIFQs12Ny5pyUgJRQq36hlbQb8LCvD+QPio2qBiYp5FZKG2uq171gfZuUOub5XuiF5U8d+tFvbaTchad31ny0qxKq9+hOvxX9EdlIcjhp9KVa6aaxcdLGbieKD+IwqPnYC0goRCpXPqsWffEkOWXAoGtkWdgMLaa/276GK1DsmJHV+d/t8NtPrWFt9kHJl0rJMpZupeLPx2OAmjVWkxhV3DtxSzO72NZt++z8kc0R2kSorreHoeNKbMy2gcc3k4iaSbNAUH81t9p22VkyrCEgJ1Spi4+KBwLs83m8sAutpn4/bkPLNPNKx3SxApUrHKSb4NQFwEATqqsuKkGZl0opWbf7d79t6bHCTxirSQHa3X/uJ+3aaXeoX+//XXvXxk/W3Prwv+SNLlzzYelZx1X/a12iNY59aXLoXUf5eNMyw1TzaLLC1C0hLBWlAqFaWMUsrDpkpWx5+B2C1xu6c9i/qQJ5oujooH0trkZDUmTEL8jk+IAGwa9KuTFpR9RVNDzt31mE1rVWkRv1tj/WtubnztppNW84u/P/VXnXz/0jnqNLhyIMtG67RWu9JXRr3pLkiVsPnR3thSqeNIbqmgJRQrXRWBmoS2mqemZEGW8NuYCEXfredb7nGokyVzp58NjOseaMEWVybhemLtu/CWgGrq0cNU/HGZk1I2uSvhv+L1pNufmc23fv9deG5pPObM31mz5fSPbLkOPRgqyfta7Ssm7TtZB/Y3HpcBhdHBtjEhXzMuofdagJSQrWy2NySTbt4aagehRYuBPkNUk1ISOonMy/rgLQ3qiLz6szi+n6Hf3LWV48W1G7ckrXjSOCLmROH1p7+3s6van67Zi6pabk34agvoyoce7BlijpsWedprSJVv06WjSFd2hTSRtorSI022+63NVWQBoRqJRmzvN2VwK80fPahhQtt9oG0XDOP1F/mpn53Pps5Ijf5VjNVR6byVebVuVo1WmB99WiBaRterGUYiNP5g9/64plXnlB9HTC/O0Ew9/+c/+U/Xu362JtQ1agrD7Zs+s7UWmHXJg88VZICA3UPmRew/rPjyGizQO63rfm8awtICdWKZ/W5oiK4JLaH3UCYS+NQTJvTASpJvWZChr2FoNS2z4K5oZRg9EVPdoo134eqFl2rNv+b/9+Cw4BH5iZPVU2/+4b6NdPsRO7eYHb6JnN9y2cz/Q61Hc8z70dmjbo0DmWosTtn032g5vWT5s98rwOfaS3VmSMWHEMU+m2ZR6oqICVUK4mGkIK5ssXhwQDUsOzGOAotru5wjpLMB6VmhIQs1FP7PMiiuteEtlIx6kMwWqCuIsXMTzStwhYcCjwyefj51ol9vfdofcdSVRm+tnUGQXBYrn2qH1rKNdx0hh12bBO9cQs3GNJ8T9qgcSa+VAK6UA2tJVx3pYiqwZb1lrYK0oBQrSjjjd05DaEabePF4TMPbVx7kGVC0v0aZ1Iicg2yUN8vVaV9SbR/mhtGs8O+qWiWRfVuD1rpFxqxaK5dSeqa2gcUHS4cMTn2wl7F72Sp79vdoQdVqqrrFgSjnRYcUtR6bdtQVsaxaL4nVTXuScItV9b3WvZUcKnLtEHur1Md01E1NzeX5uuXTH7x9qs66OQNNHbnVOwaJxUwvi3ySmHCbtp7F5BA4kWrDqo4j2hrDy2HbDTg6iYxY7IIcO4Bj+LfK1uMyAMtc7N6pNzRKLLoN3/Mz6NV/slGB0Fwi+ZxM+/tvWVqduJYrQWHAo+svvGPBzfckb1b0zsu8btoSOYSW1tMIBV1XY5Viy5kHmBZOStWHm7vtuBQKmH92l4ymmFH7lfUrL/lnvGwBYcSNXNt70pj5ry6GzVzc5zPZsYI1ZalqSV70PHdditFez00cvn3ujCTslee6g9GXTEhN5kbHRxX4Lq2cEtoPpsJJFAvfD4OLDHTqrCo3CjVIrjcU9pncZsq0nOvP32fBYcCj0wefn67abWv39b7jKJ3XcqDZBM6bpe1obn36LfhWiHf4ybQ6vBkzWpba33YoAMBaae02qcSGK3EsXA00NS9adYgjmZj26VbwBSlJFpFra6CNHC/Oqlijd25Ki3HSkXwiu5WMi4hUVSQ2i+fzZz0qOptVG7A56sHy7l5lc90qywymtL4rFBBCkuZG/9WLTvXL4cqUqShZtOWs5vu/f46DSc/ou+hQlg6nNQ9tIRX7fLHl1C0YGfSAUapHOpYHJWQ1JoHhtIO3efYPb/1n+kwGd3h4tiOgjEZ3dAXx71gYc5v4e/WepPWT0C6pCFLj2tRUhE8Tvvg4ghHodiw4+1kYS3yZ75CQZ7kHpFqwaVuYgtVg810RADLsrJiphxUkSINMycOrT31nT8b3vC5v7WyBXqBKB4MNsk68X6p5B+R7+LC+JOKq8MkyG0OjUHxtfp/REmQNOxIgFTYODTxqrqFJFTqd/ReX1sH16DjAWmTrLF257OZodADsIo6+OQ6Xqj07yj83FUGpIRqy9IYqLn+S10uVWE3sMCgRwHpQk2h0NPXcwBE4SmXRk2YHe0nx4Y7qSJF0s4ffK6t+qWHeupve8zaMEtmdbYV8V8t1UrjT1a6xmyUIDSQf7L+vGBcQgUNXKqwM5+/PfL70pvGd6SjVaMF4wpH+vg0kmt7YW0VKkgpvP/lzkNhvn/her7ktVzzDRqh2uIISN1B9Sg0M59fzTvoAkjXWETVZFZZveX//k9nf/q1PXy2kLRzP/u7v66q2/Dsuq27xiw9+UmGt+EHmXGEsj7o0FLdb0JEB+c0ms/ti/lsZiSJoFQqRjvke9nlzid162/zeyiVlb4VZRSu44VreCSzhquj+EtSQnh0uSGNbWjSRj5uwaHYhs841JJrEVXQAMrlTGt9mKngq73q4869L9hvbvJU1eTYd62sjMpnMz2Mm1HlEYXV/f0WHEMcCkHp/IY2sr9HZEylqsy4PCKFD67/nmpdf5MbRERtBakJ1Wizv4zmXwyqSC+lMuwGFnB1NhGAeGlcfBdt1bVtd02/8+o/KzlcOGT6nVc3vv/tzv1X3Dlwiy3vSirTvNjA0hEjSjcc7XdgN/vlhOc0jhU2Di38KWZdmc9mCm3I7aH5uj5lLeOK9/+gcy8i2mcgEapdSvNiwpXh2VHhKRDUkwdZrrU0AYiX1sV30epvfXjf7PtjI2YupJJDhkMmDz/fevp7O79qZuJa8q5cnWXoolFFc0cvYTZ08agNuUnW1RfX1ovM3g1jtu4FatffHrfZR05zi33g2UDalYxWupNXyggEL8VnG65wtaUJQPQ0bfpRkZqNWzqr6zdPK34LUOzc60/fN7Gv956034HsIkyBhA7jDow+0bDjfpyaQpuWhf8Qjl6g/fPBmisC2gNSQrUPqP6FYF7hJbSH3UAYX9YAitXuy3gZs1FO3fV/8FcWHAo8de71rz9tQUjqe2ClSYfC3b0vIaNbRi06JNhjxIHP96BUCaMCqgNSQrVLuBAWE3hfQKAEZ0jYP8BPFMAKdmhfnJRqffuTD6665lM5XUcNV5hNm87/Yui/n3nliVTG4JgNZYIgaOEDpcIOh+ZCE8pjMa58LsgRKqS9gjQgVJvnSsUhP8sLOA9wDZsvAFjOQGN3zsub+lXXfHprVd2GOQsOBR6anThWe/7Qc28kHZLKTtsub5jjkh0uXZ/lvVBlh7AxxZszLdQn4zBQJgJSNzjxRE8qgkcsOJQ00V4P51BFCmAZQ43duS5fT5BptV/9O3/0pAWHAk/NnDi0NoWQlConHZ5y9OGVt985WJQzhRySp5CPVUB9QCofAt9nibj0xeX7LzSbM8FVVJECWGiUhSqt9khfkiEprfVqmMr+HhffmIwL8L0oBxeMOvgQgDVXBVyoIA08fwo55tjMLt8DUp6ow0lUkQJYYNSnTK25wAAADqJJREFUTZlWQqs90pZESEprvRoDHlT2Oxn+omTOfQ5Yc1XGlYDU51DNqfcuv9C+VgS7FnYDC/UyFweAzH8jHA0xrfZrPvqnf27NAcFLcYak+WxmI4UQKvgQjgay5nrKgkNBeoYc2nxsoR7WXOVxIiD1PFRz8UbD1ypKbhrhNLlWs3so4Ddzw95BOHq5+tse66u7/rM8KEWqYgxJzfd/Kjvmo2g7PZsJ3cuGTd4ad7mKWO6xWHOVwZUK0sDTUG3c0acevs7hJCCF8xq7c73MjQa8NS6Vo4SAS7jizoFbajZtOWvlwcEbhZB04uVHt0XxnvPZjAndOvkEWc3sVu9VoCIhEq32fur1YGPkPh4AlM6lgNTHUM3JQE0WTr79MrsadgOL4WYU8M8Y4Whx6q7/v/6AeaRImwlJz7028NLEvt57KjkUmTtKJZO9xiUc9bKDr7E7N0irvXdGfHgYwAOA8jgTkHoaqrlccehbNSXVo/CGPAzgZhTwh6kabyUcLU79rQ/vYx4pbDA3earq3Otff/r093Z+tZzDCc0dbeAHaqVCVb/vm8TS3eQP85n3ZoyEPAAYsuBQ1HCpgjTwLGQalw+8q3z7oiYghVcau3M93IwCXmC3+jKYeaSrb/xj7g2Qugsh6dP3nfrOn5XT6TTI3FFrmWtzMw+uLlbadbGpjRe6PGitX4jPdglcC0h9CtWcvmn2rCLY9bAbWApf2IDbhghHy7fhjuzdq65rP6T1+OGW8wefaxv/5vZjxW7elM9mzLqsjY+BlQa4Nl9K1p60I7vtER/X3KEHACiCUwGpZ6GaD/MqfZnJSTgKL3EzCjhtoLE7x271FWr4w2/cwKZNsMXU0R9mzr3xzMGV5pKyKZPVzLzRLq7Nl5NRA4/YdlyIxJBsFOslCYYH+CitzLUK0oBQzSm+BIdszgRvyc0o80gBt8wvwPmZRmP1lrtuIiSFLWYnjtWePfA33zj1Qvezix1SPpvpCIJgLz8w65iW+luYN7o8CdEIktwySgXlPMabFcHFgNSHUG3Ih6d+8qTDh/ZbKkjhNZlHys0ooN84C/Dordu6a6yu6Y4d7GwPm5x/8x86Tj5zx4lwy73sWM/vv32ekpZ67+eNFkMe8HFf6gbmoAs5Bx2MN1uecwGpJ6GaT4Ga6+/Vi7AbKAJPNQHdRtjwIz7123qfWfOxe79ASAqbTL/z6sazP/3a4dPDDzwu4egwO9ZbxayJ7zYPollvlIz7Uv0IRxeQDararTooy7hYQRp4EKoRkLqD6lHgg6ea7dyMAiqZjQ9YhMRsPiT96J/+udNvEurM73L/2sCu6vrM3xGOWmVAHlqx1ihD6L50SN3BIyAcXZo8yN5h6/GljYBUn1GfftE9+FLnpgUQhKSAOmZjzNt93vggafW3Pda35mNf+Jpf7xq2W3Vd+6EP7TjwO6ZakfbN1BWuy2zEVCFz/sxmg7Tbq0M4ugIZhURIuggnA1LHQzUf5/q4+uTOq7AbKAYhKaCG+W5ubezOsdFgwtZ/Zs+XCElhCxOONvzhN24IPliDNbP5YirGpZq/metytJhJqgrhaJEISRfnagVp4HCo5mPFoavvmSH2wCIISQGrjclMuw4WIOkhJIUNwuFogVTdmfmN18tsYsRvQB5YUc0fEwlJCZPsNtDYnWvl3qR4hKSXczkgdTFUG5XBur5xNSClvR5YgiywWnliD1jlKVmE8/1lAUJSpGmxcDTMrFnMbGLT7k1QGhtzXm+Rdnof14iJkjDpFsZIWGmnhNgoESHppQhIdfFyQSJPgVyrCPY17AZKIjc7OzlrWAaVxvErLMLZCdkyhKRIw0rhaJhp9w4FpVyvozEic0bbZcMVJETOdzOhvzXG5Xehz/cTUYlQSOp9+O9sQOpoqOZzxYZrs3SovgGKJDc9t/OljSUM0soZG9NOv4NFuN1MSLr2E/ftrKrbMOf7uUD8Vt/4x4PFhqNhEpS2UlFakXAwypzRlEiXU7s8wOfeND0m62HmbkQkJG33/TPtcgVp4FioNub54sS1QJGAFCiB3PzwxB6LopUzcuHNPpiXrcCF3e3v/QIhKeJkqpU33JG9u5KXWFBRyhid4pjzdD3BqF3kAX4r9x2JG5eWemahR4wKafcDUpdCKK8DNWlHd6Utx/ewGygLT+yxkgULbxYspZsPRqUig80+lKnf1vuMCUlrNm056/u5QLRM8L7m5s4nTLVyVH+xXK+7pAPgEalYxwfG5H5nEzNG7RV6QEt7cjKGZBY6LfUxCa23HnHyDa7A6YDUsVCNCg53zgHVo0AFQk/sXRujgogQlJZsLByMUpGhlwlJV2+56yZCUkRlPhz92L1fWN/+5INxnFQJmMx1x1Qt3e35d/u4VIveLhX8fVyPdZBui2ZfQ6UEjMnvRQcPC5IhD8pv8e3hlesVpIEjoRoVhxe4EiwSdgMVkgVVhwRgVJ1gUaGg9BZaORc1KjNGCUYdsm7rrrFN935/ndlIx/dzgcqYoH3tJ+673gTvSZzKxu7coHy3b5KKPF/C0iF5v81SLUobvUJSedcrVdHcc0Sj0E7PrNEUSAbV6lPw70NA6kKoxsXgg4pg7UEIYTcQIQnAmmVhQVCKRZnrLq2clyhUKLUyY9RdZiMds6GO7+cB5TEBu6lGNoF70qdQgqb+BWHpgEMtzGPyfu5u7M5VSVVcPw+p3CAP8bsISisSHvlDO32KFgT/zndl1VpwDLEyF6h8NmO+hJoUvw1ubj9gzsX9thxMGQi7gRhIyNOfz2bMDWmv8ms+YiIP2sznozefzZiFd+FPgwfn3FSLmkXGIItwf5gNdapXN/Sc+9nf/fXc5Kkq388HimOC9Uo3Y4qKXK/6Cx1Y+WymVa7b7VLZpOH6PS5rgPk/FEv4Qe45uvLZTE8QBOZPF/enKxqT33XGS1hGPs/t+WymXe4nW1x8n84HpEJzqDZu2k0sOA5b9CsPSPlZAjEKBaXtcjO6nfONxch362A+m9kYCkpd+7yMyvfmIDO7/GV2uA9q1/548vA//tPMiUNrfT8fWNr8vNGP/umfz39mLCXh4sWAUQLT8J82C458RI5x/g+BqN8k6Cs8nO1y9H6jUuZ3pp+uFvvJqINW+Sz3uBaUVs3NzVlwGPGSL879Sg9/QEr0IfLZzBGlT99M2L3RguNQT8KvFxW+j0fYGTpZ+WymWW5EexRdN8zT88RnkPF7dUGosrRd4XdNoUppUKqUCEVxife/3bl/8vDzrZwVLFR71cdP1jX9fmsaLfVRk+/+ZrmOB6F/RlVxOh4Kac0196T85yNcd1GM0P1pl6uVeEUYL1SH8xBBL0eKUm4vrLu8qCA1v3CK2+ypOLyc1opgfpZAwmShYiph+kJteR0W3oyOyTWCm8SUFSpLgw8WMO2hP7bdRxQW6YW2Tca4YFlX3Dlwy+nhBx4///NvPkDLPQpW33DXyIbP/W27KydEvvuPLDfaSu4JSilcIPxEZBbcnzaHHsy6Xlk6LvdYg3TJukHuPYflc9yldJTExXEOXlSQBh9UhGh8Ys78jQVCv3zaDBJ8REPxZ4AAwxKhtupWuSFNOjAdXRBspb7oooJ0ZfK5aQ3NvmtO8LMzFlrwF9o2WayjLGdeeaJp6ugPXpk6+sMMZ9BfZpf6uqY7diS1Sz2AlUlu0Z7S/WkcRgvdLayD/CAPoArjJGwNS0dDFcz+BaQAACxHAsJC6FWoLInixnREgq2L4RYPvtwSaucs/AlCn6Gwhe2di+0GWlg8FFo2T/JwDXE59UL3s5OHn99ONal/6q7/7IHaK2/qcKGlHnCZ3J+m8WC2XCMLigC45/WYhKXhbqy0NtYrqjiFgBQAgBXIzWlYOAgLQgFoAaEWABUmXn5029SvRp6bfudV5qR7YL5q9Nr2/2zzRkwAlif3pc0LHupHNWO3WKPyMHdY7oHZkAwrWmRjvTg+t+ERVAdKCeoJSAEAAADPMZvUfa7NGgVwudA4oCAUnIYtfMi/mJOhjciCBYUAdEIhcqFilHAH1mKf34KFn9H5DqxKxzgQkAIAAACYn006/e4bg+x07xazQ/2qa9vuqr/14X2+nwsAAJZCQAoAAADgool9vfdM/eb7f0PbvW7V9Zun667/g79a3/7kg76fCwAAVkJACgAAAOAypu1+8vA//b+zE8dqOTt6VNVtmKu7rv0l2ukBACgeASkAAACAJZ3+3s6vTo4NdxKU2s/MGa3ZuKWT3ekBACgNASkAAACAZZn5pDMnDw1MvjV8Gxs52WfVde2Hahtv7mLOKAAA5SEgBQAAAFCUQlA6dezHv0dFabpMK31t5pO/JBgFAKByBKQAAAAASkbrfToKM0ZppQcAIDoEpAAAAADKZjZzmn77X77Mrvfxmt+Vvql9oHrdh/+SYBQAgGgRkAIAAACo2MTLj26bOfGLr0z95uUW5pRGZ36+6MYt2frbHutz5T0BAGAbAlIAAAAAkTLt9zMnf3nn1NEfZjizpavZtOVs7dW3PF+z4SM9VIsCABA/AlIAAAAAsZjf1OnUr/umj+//7MyJQ2s5y0szLfS1V3/itZqG65+o39b7jK3HCQCAiwhIAQAAAMTOtODPTuT+48x7b7Yzr/QCUylas/GGNwlFAQBIFwEpAAAAgESZytLZM2//xczpY+0z777Z5MtO+GYH+trGj71dveHaV6rrM/+t/taH91lwWAAAeI+AFAAAAECqJvb13jN7Nv/52VO/2joz/lajK4GpCURrGprHaxqaR6vXXT3IRksAANiJgBQAAACAVUw7/tzkqTvnzr336ZnxIy0z40caNOyMX3vVx09Wr7/mSPXaD/2kqq7hBdrmAQDQgYAUAAAAgPVMW/7c5Km7Z8+Pt81NnmqePX20eW76zOqkN38ymylVr2s8XbX2yner6zb82lSGBrVrf0y7PAAAehGQAgAAAFCtEJ6a9zA3febmucnTNxTez+yZ4zfOTZ1ZU+z7M+3wH/yH1SeqVzeMzP87ISgAAG4KguD/AHF5VCE9kdVYAAAAAElFTkSuQmCC;fontFamily=Helvetica;" parent="4fnjIGI5G4VHq082C5wX-4" vertex="1">
          <mxGeometry x="21.99000000000001" y="33.75" width="156.02" height="28.5" as="geometry" />
        </mxCell>
      </root>
    </mxGraphModel>
  </diagram>
</mxfile>
